<svg width="40" height="24" viewBox="0 0 40 24" fill="none" xmlns="http://www.w3.org/2000/svg">
<g clip-path="url(#clip0_4523_3825)">
<path d="M29.4176 4.60742C27.5935 4.60813 25.8443 5.32516 24.5539 6.60109C23.2636 7.87702 22.5377 9.60754 22.5355 11.4127V11.4848C22.5355 11.4848 22.5355 11.4981 22.5355 11.5035V23.2791C22.5362 23.4702 22.6132 23.6532 22.7497 23.7883C22.8862 23.9234 23.0712 23.9996 23.2642 24.0003H24.7216C24.9147 23.9996 25.0996 23.9234 25.2361 23.7883C25.3726 23.6532 25.4496 23.4702 25.4503 23.2791V16.9707C26.3335 17.5882 27.3514 17.9909 28.4214 18.146C29.4914 18.3012 30.5833 18.2044 31.6084 17.8636C32.6335 17.5228 33.5629 16.9476 34.3212 16.1846C35.0795 15.4216 35.6453 14.4924 35.9726 13.4724C36.2999 12.4524 36.3795 11.3704 36.205 10.3143C36.0304 9.25817 35.6067 8.25765 34.9681 7.394C34.3295 6.53036 33.4941 5.82792 32.5297 5.34375C31.5653 4.85957 30.4991 4.6073 29.4176 4.60742ZM29.4176 15.3361C28.6335 15.3361 27.867 15.106 27.215 14.6749C26.563 14.2438 26.0549 13.631 25.7548 12.9141C25.4547 12.1972 25.3762 11.4083 25.5292 10.6473C25.6822 9.88618 26.0598 9.18709 26.6142 8.63839C27.1687 8.08968 27.8751 7.71601 28.6442 7.56463C29.4132 7.41324 30.2104 7.49094 30.9349 7.78789C31.6593 8.08485 32.2785 8.58772 32.7141 9.23293C33.1498 9.87814 33.3823 10.6367 33.3823 11.4127C33.3809 12.4528 32.9627 13.4499 32.2195 14.1854C31.4763 14.9209 30.4687 15.3347 29.4176 15.3361Z" fill="#1A5632"/>
<path d="M13.7642 12.1633C13.7668 10.6352 13.2505 9.15044 12.2982 7.9474C11.346 6.74436 10.0129 5.89276 8.51304 5.52923C7.01314 5.16571 5.43331 5.31134 4.02706 5.94276C2.62081 6.57418 1.46966 7.65479 0.758327 9.01118C0.0469907 10.3676 -0.183293 11.9211 0.104426 13.4225C0.392145 14.924 1.18119 16.2862 2.34494 17.2907C3.5087 18.2952 4.9797 18.8837 6.52192 18.9618C8.06413 19.0399 9.58815 18.603 10.8494 17.7213V17.951C10.8494 18.1423 10.9262 18.3257 11.0629 18.4609C11.1995 18.5962 11.3849 18.6721 11.5781 18.6721H13.0355C13.2286 18.6714 13.4135 18.5952 13.55 18.4601C13.6865 18.3251 13.7635 18.1421 13.7642 17.951V12.1633ZM6.87938 16.0868C6.09525 16.0868 5.32873 15.8567 4.67675 15.4256C4.02476 14.9945 3.51661 14.3817 3.21653 13.6648C2.91646 12.9479 2.83794 12.159 2.99092 11.3979C3.1439 10.6368 3.52149 9.93776 4.07596 9.38906C4.63042 8.84035 5.33686 8.46668 6.10592 8.3153C6.87499 8.16391 7.67214 8.24161 8.39659 8.53856C9.12103 8.83552 9.74023 9.3384 10.1759 9.9836C10.6115 10.6288 10.844 11.3874 10.844 12.1633C10.8426 13.2035 10.4244 14.2006 9.68124 14.9361C8.93803 15.6716 7.93044 16.0854 6.87938 16.0868Z" fill="#1A5632"/>
<path d="M39.2712 5.73193H37.8138C37.4113 5.73193 37.0851 6.05479 37.0851 6.45306V17.9509C37.0851 18.3492 37.4113 18.6721 37.8138 18.6721H39.2712C39.6736 18.6721 39.9999 18.3492 39.9999 17.9509V6.45306C39.9999 6.05479 39.6736 5.73193 39.2712 5.73193Z" fill="#1A5632"/>
<path d="M26.8969 2.79115C26.0405 1.63692 24.8379 0.779575 23.4603 0.341225C22.0828 -0.0971253 20.6007 -0.09412 19.225 0.349813C17.8493 0.793745 16.6502 1.65596 15.7986 2.81365C14.947 3.97133 14.4863 5.36544 14.4821 6.79738V14.07V17.9507C14.4828 18.1418 14.5598 18.3248 14.6963 18.4599C14.8328 18.5949 15.0177 18.6711 15.2108 18.6718H16.6681C16.8614 18.6718 17.0468 18.5959 17.1834 18.4606C17.3201 18.3254 17.3968 18.142 17.3968 17.9507V12.8762V11.2737H21.0511C21.2442 11.273 21.4291 11.1968 21.5656 11.0617C21.7021 10.9266 21.7791 10.7436 21.7798 10.5526V9.11031C21.7791 8.91927 21.7021 8.73626 21.5656 8.60118C21.4291 8.46609 21.2442 8.38989 21.0511 8.38919H17.386V6.78669C17.3908 5.996 17.6371 5.22522 18.0928 4.57566C18.5484 3.92611 19.192 3.42818 19.9389 3.14731C20.6858 2.86645 21.5011 2.81579 22.2776 3.00201C23.0542 3.18822 23.7556 3.60259 24.2898 4.19066C24.399 4.31513 24.5508 4.39538 24.7161 4.41608C24.8814 4.43677 25.0486 4.39645 25.1858 4.30283L26.6189 3.6378C26.9616 3.43214 27.1128 3.14369 26.8969 2.79115Z" fill="#1A5632"/>
</g>
<defs>
<clipPath id="clip0_4523_3825">
<rect width="40" height="24" fill="white"/>
</clipPath>
</defs>
</svg>
