<svg width="122" height="48" viewBox="0 0 122 48" fill="none" xmlns="http://www.w3.org/2000/svg">
<g clip-path="url(#clip0_219_81537)">
<path d="M12.8863 36.2386C5.84352 36.2408 0.134986 30.5275 0.132813 23.481C0.13064 16.4345 5.83918 10.7189 12.8798 10.7168C15.8003 10.7168 18.634 11.7193 20.9048 13.5593C22.0152 14.5054 22.1477 16.1713 21.2047 17.2826C20.292 18.3548 18.7013 18.5223 17.5866 17.6632C16.2589 16.5802 14.5986 15.993 12.8863 16.0017C8.75973 16.0038 5.41326 19.3531 5.41544 23.4854C5.41762 27.6132 8.76192 30.9603 12.8863 30.9625C14.6073 30.9712 16.2762 30.3774 17.6061 29.2835C18.7557 28.3875 20.4136 28.5919 21.309 29.7424C22.1782 30.8581 22.0152 32.4588 20.9395 33.3765C18.6622 35.223 15.8199 36.2365 12.8863 36.2386Z" fill="#015D67"/>
<path d="M51.0094 36.2386C43.9666 36.2408 38.2581 30.5275 38.2559 23.481C38.2537 16.4323 43.9622 10.7189 51.0029 10.7168C53.9234 10.7168 56.757 11.7193 59.0278 13.5593C60.1382 14.5054 60.2708 16.1713 59.3255 17.2826C58.4128 18.3548 56.8222 18.5223 55.7074 17.6632C54.3797 16.5802 52.7196 15.993 51.0072 16.0017C46.8806 16.0038 43.5342 19.3531 43.5363 23.4854C43.5385 27.6132 46.8828 30.9603 51.0072 30.9625C52.7283 30.9712 54.3971 30.3774 55.727 29.2835C56.8765 28.3875 58.5346 28.5919 59.4299 29.7424C60.2991 30.8581 60.136 32.4588 59.0604 33.3765C56.7852 35.223 53.943 36.2365 51.0094 36.2386Z" fill="#0EB58A"/>
<path d="M30.0853 36.2384C28.6294 36.2384 27.4495 35.0575 27.4473 33.5981V13.3503C27.4842 11.8931 28.6946 10.7404 30.1506 10.7752C31.5565 10.81 32.6886 11.9431 32.7234 13.3503V33.6025C32.7212 35.0575 31.5413 36.2384 30.0853 36.2384Z" fill="#049BA4"/>
<path d="M68.2612 36.2384C66.8052 36.2384 65.623 35.0575 65.623 33.5981V13.3503C65.6601 11.8931 66.8704 10.7404 68.3263 10.7752C69.7323 10.81 70.8644 11.9431 70.8992 13.3503V33.6025C70.897 35.0575 69.717 36.2384 68.2612 36.2384Z" fill="#0AA44A"/>
<path d="M68.2612 8.70928C66.8052 8.70928 65.623 7.52837 65.623 6.06904V6.06687V4.67931C65.6601 3.22216 66.8704 2.06949 68.3263 2.10428C69.7323 2.13908 70.8644 3.27218 70.8992 4.67931V6.06687C70.8992 7.5262 69.717 8.70928 68.2612 8.70928Z" fill="#0AA44A"/>
<path d="M30.0853 8.70907C28.6294 8.70907 27.4473 7.52597 27.4473 6.06882V4.68126C27.4842 3.22411 28.6946 2.07144 30.1506 2.10624C31.5565 2.14103 32.6886 3.27413 32.7234 4.68126V6.06882C32.7256 7.52597 31.5435 8.70907 30.0853 8.70907Z" fill="#049BA4"/>
<path d="M79.0881 36.2383C77.6323 36.2383 76.4523 35.0574 76.4501 33.598V3.20443C76.4131 1.74728 77.5648 0.535885 79.023 0.498912C80.4789 0.46194 81.6894 1.61461 81.726 3.07394C81.726 3.11743 81.726 3.16094 81.726 3.20443V33.598C81.726 35.0574 80.5463 36.2383 79.0881 36.2383Z" fill="#87BD40"/>
<path d="M38.5149 41.0229C37.5935 39.8942 35.9333 39.7246 34.8055 40.6445C32.0588 42.8803 28.1191 42.8803 25.3724 40.6445C24.2228 39.7485 22.5649 39.9529 21.6696 41.1034C20.8004 42.2191 20.9633 43.822 22.039 44.7376C24.3141 46.5862 27.1565 47.5953 30.0879 47.5975C33.0193 47.5932 35.8616 46.5819 38.1367 44.731C39.2603 43.8111 39.4297 42.1538 38.5149 41.0229Z" fill="#F79420"/>
<path d="M90.6468 6.04013C90.6468 6.362 90.567 6.63603 90.4084 6.8644C90.2497 7.09276 90.026 7.26892 89.7364 7.38854C89.4476 7.51033 89.1043 7.57122 88.7064 7.57122C88.5071 7.57122 88.3151 7.56035 88.1353 7.54078C87.9547 7.51903 87.7855 7.48858 87.6285 7.44943C87.4722 7.41028 87.3331 7.36026 87.207 7.30154V6.58166C87.4112 6.66648 87.648 6.74478 87.9181 6.81655C88.1874 6.8905 88.4656 6.92529 88.752 6.92529C89.0017 6.92529 89.2108 6.8905 89.38 6.82308C89.5501 6.75565 89.6778 6.65996 89.7624 6.536C89.8495 6.41203 89.8934 6.26414 89.8934 6.09015C89.8934 5.91616 89.8519 5.77262 89.7673 5.65517C89.6827 5.53774 89.5501 5.429 89.3695 5.33113C89.1872 5.23325 88.9497 5.12669 88.6568 5.01577C88.4526 4.94183 88.2655 4.85701 88.0979 4.76132C87.9311 4.66562 87.7855 4.55688 87.6634 4.43291C87.5422 4.30895 87.4462 4.16323 87.3811 3.99794C87.3136 3.83047 87.2811 3.63908 87.2811 3.4216C87.2811 3.12365 87.3551 2.86702 87.5007 2.65388C87.648 2.44074 87.853 2.27981 88.1174 2.16671C88.3826 2.05362 88.6869 1.99707 89.0367 1.99707C89.3239 1.99707 89.5908 2.02535 89.8389 2.08189C90.0862 2.13843 90.323 2.21673 90.5475 2.3146L90.3059 2.94531C90.0952 2.85831 89.8845 2.78872 89.6737 2.73435C89.4606 2.67998 89.2409 2.6517 89.0131 2.6517C88.8024 2.6517 88.6259 2.68215 88.4803 2.74522C88.3346 2.80612 88.2264 2.89529 88.1499 3.00838C88.0743 3.12147 88.0377 3.25631 88.0377 3.41291C88.0377 3.58907 88.0767 3.73478 88.1565 3.85005C88.2354 3.96531 88.3615 4.07188 88.5307 4.1654C88.6999 4.25892 88.9236 4.35896 89.1978 4.46553C89.5061 4.58515 89.7689 4.71129 89.9845 4.84396C90.1993 4.97663 90.3645 5.13756 90.4775 5.32677C90.5906 5.51599 90.6468 5.75305 90.6468 6.04013Z" fill="#444039"/>
<path d="M95.0947 3.41113V7.49769H94.4975L94.3934 6.93875H94.3519C94.2673 7.08011 94.1582 7.19756 94.0256 7.29108C93.893 7.3846 93.7433 7.45636 93.5782 7.50203C93.413 7.54771 93.2373 7.57163 93.0526 7.57163C92.7394 7.57163 92.4717 7.51944 92.2545 7.41504C92.0357 7.31065 91.8705 7.14971 91.7591 6.93223C91.646 6.71256 91.5898 6.43201 91.5898 6.08403V3.41113H92.3375V5.97964C92.3375 6.30804 92.4091 6.5538 92.5507 6.71692C92.6914 6.88003 92.9086 6.96268 93.1999 6.96268C93.4846 6.96268 93.7084 6.90613 93.8759 6.79303C94.0435 6.67994 94.1623 6.51683 94.2347 6.29934C94.3063 6.08403 94.3429 5.8187 94.3429 5.50335V3.41113H95.0947Z" fill="#444039"/>
<path d="M98.3731 3.33691C98.871 3.33691 99.2664 3.51307 99.5641 3.8654C99.8619 4.21773 100.012 4.74405 100.012 5.44217C100.012 5.90759 99.9416 6.2969 99.805 6.61225C99.6683 6.9276 99.4747 7.16683 99.2273 7.32777C98.9792 7.48871 98.688 7.57135 98.356 7.57135C98.1445 7.57135 97.9623 7.54308 97.8036 7.48871C97.645 7.43217 97.5099 7.35822 97.3976 7.26688C97.2846 7.17336 97.191 7.07549 97.1129 6.96892H97.0649C97.0755 7.06462 97.0844 7.17771 97.095 7.30385C97.1064 7.43217 97.1129 7.54526 97.1129 7.64748V9.31559H96.3652V3.41086H96.9754L97.0755 3.9959H97.1129C97.1886 3.87411 97.2846 3.76319 97.3976 3.66314C97.5099 3.5631 97.645 3.48263 97.8061 3.42391C97.9663 3.36737 98.1559 3.33691 98.3731 3.33691ZM98.2014 3.9524C97.9387 3.9524 97.7296 4.00459 97.5734 4.10681C97.4172 4.20903 97.3016 4.36127 97.2276 4.56353C97.1536 4.76579 97.117 5.02025 97.1105 5.3269V5.44652C97.1105 5.77275 97.1454 6.04678 97.2146 6.2708C97.2846 6.4948 97.3993 6.66444 97.5604 6.78188C97.7214 6.89933 97.9362 6.95805 98.2079 6.95805C98.4406 6.95805 98.6334 6.89498 98.788 6.76883C98.9426 6.64269 99.0573 6.46436 99.1313 6.23599C99.2078 6.00546 99.2444 5.74013 99.2444 5.43564C99.2444 4.97458 99.1598 4.61138 98.9881 4.34823C98.8206 4.08506 98.5578 3.9524 98.2014 3.9524Z" fill="#444039"/>
<path d="M103.053 3.33691C103.551 3.33691 103.946 3.51307 104.244 3.8654C104.542 4.21773 104.691 4.74405 104.691 5.44217C104.691 5.90759 104.622 6.2969 104.485 6.61225C104.348 6.9276 104.154 7.16683 103.907 7.32777C103.659 7.48871 103.368 7.57135 103.036 7.57135C102.825 7.57135 102.642 7.54308 102.483 7.48871C102.325 7.43217 102.19 7.35822 102.077 7.26688C101.964 7.17336 101.871 7.07549 101.793 6.96892H101.745C101.756 7.06462 101.764 7.17771 101.775 7.30385C101.786 7.43217 101.793 7.54526 101.793 7.64748V9.31559H101.045V3.41086H101.656L101.758 3.99807H101.795C101.871 3.87628 101.967 3.76536 102.08 3.66532C102.193 3.56527 102.327 3.4848 102.488 3.42608C102.648 3.36737 102.836 3.33691 103.053 3.33691ZM102.884 3.9524C102.621 3.9524 102.412 4.00459 102.255 4.10681C102.099 4.20903 101.984 4.36127 101.91 4.56353C101.836 4.76579 101.799 5.02025 101.793 5.3269V5.44652C101.793 5.77275 101.828 6.04678 101.897 6.2708C101.967 6.4948 102.081 6.66444 102.242 6.78188C102.404 6.89933 102.618 6.95805 102.89 6.95805C103.123 6.95805 103.316 6.89498 103.47 6.76883C103.625 6.64269 103.739 6.46436 103.813 6.23599C103.89 6.00546 103.927 5.74013 103.927 5.43564C103.927 4.97458 103.842 4.61138 103.67 4.34823C103.503 4.08506 103.24 3.9524 102.884 3.9524Z" fill="#444039"/>
<path d="M106.476 7.4972H105.729V1.72949H106.476V7.4972Z" fill="#444039"/>
<path d="M107.117 3.41113H107.921L108.788 5.76433C108.831 5.88612 108.875 6.00356 108.912 6.11883C108.951 6.23409 108.984 6.34502 109.012 6.45158C109.04 6.56032 109.064 6.66472 109.082 6.76912H109.108C109.138 6.64297 109.18 6.49073 109.234 6.31022C109.288 6.12971 109.346 5.94701 109.412 5.76216L110.242 3.41113H111.042L109.28 8.07402C109.184 8.33285 109.066 8.55682 108.93 8.74386C108.792 8.9309 108.63 9.07449 108.442 9.17448C108.256 9.27454 108.032 9.32458 107.775 9.32458C107.656 9.32458 107.552 9.31807 107.463 9.30497C107.373 9.29196 107.295 9.27674 107.23 9.25933V8.6656C107.285 8.67861 107.35 8.68951 107.428 8.69822C107.506 8.70912 107.587 8.71343 107.671 8.71343C107.826 8.71343 107.96 8.68301 108.073 8.62207C108.186 8.56122 108.282 8.47636 108.363 8.36328C108.442 8.25239 108.51 8.12187 108.565 7.97398L108.749 7.49117L107.117 3.41113Z" fill="#444039"/>
<path d="M89.8689 11.7669C89.5906 11.7669 89.3384 11.8147 89.1188 11.9126C88.8975 12.0105 88.7103 12.1518 88.5582 12.3388C88.4036 12.5259 88.2865 12.7499 88.2059 13.0109C88.1238 13.2719 88.0847 13.5676 88.0847 13.8961C88.0847 14.3332 88.1498 14.7116 88.2775 15.0313C88.4085 15.351 88.6038 15.5968 88.8649 15.7686C89.1277 15.9426 89.4556 16.0274 89.8534 16.0274C90.0901 16.0274 90.3163 16.0056 90.5335 15.9622C90.7483 15.9186 90.9655 15.8621 91.1787 15.7925V16.4449C90.972 16.5233 90.7573 16.582 90.536 16.6212C90.3139 16.6603 90.0552 16.6777 89.7598 16.6777C89.2058 16.6777 88.747 16.5624 88.38 16.3319C88.0123 16.1014 87.739 15.7794 87.5584 15.3619C87.3786 14.9443 87.2891 14.455 87.2891 13.8874C87.2891 13.4763 87.3452 13.1022 87.4583 12.7629C87.5714 12.4237 87.739 12.1301 87.9586 11.88C88.1775 11.632 88.4476 11.4407 88.7689 11.3058C89.0887 11.171 89.458 11.1035 89.8754 11.1035C90.1463 11.1035 90.4115 11.1318 90.6702 11.1905C90.9289 11.2492 91.1657 11.3297 91.3829 11.4341L91.1006 12.067C90.92 11.9844 90.7272 11.9147 90.5205 11.8517C90.3163 11.7973 90.0967 11.7669 89.8689 11.7669Z" fill="#444039"/>
<path d="M93.0009 10.8398V12.4275C93.0009 12.5537 92.9969 12.6776 92.9903 12.7973C92.9838 12.9191 92.9749 13.019 92.9643 13.1017H93.0074C93.0945 12.9582 93.2011 12.8386 93.3272 12.745C93.4549 12.6494 93.5989 12.5776 93.7616 12.5297C93.9227 12.4819 94.0943 12.4579 94.2741 12.4579C94.5939 12.4579 94.8615 12.5102 95.0828 12.6145C95.3025 12.7189 95.4693 12.8798 95.5823 13.0974C95.6954 13.3171 95.754 13.5998 95.754 13.9477V16.6098H95.0177V14.0456C95.0177 13.7194 94.9461 13.4736 94.8021 13.3105C94.659 13.1452 94.4393 13.0648 94.144 13.0648C93.8617 13.0648 93.6379 13.1213 93.4703 13.2344C93.3027 13.3475 93.1832 13.5128 93.1116 13.7303C93.04 13.9477 93.005 14.2152 93.005 14.5306V16.6098H92.2598V10.842H93.0009V10.8398Z" fill="#444039"/>
<path d="M98.5574 12.4521C99.0618 12.4521 99.4377 12.5631 99.6874 12.7871C99.9372 13.0111 100.061 13.3634 100.061 13.8463V16.6083H99.5288L99.3831 16.0146H99.3531C99.24 16.1625 99.1204 16.2865 98.9959 16.3843C98.8722 16.4822 98.7315 16.5583 98.568 16.6061C98.4077 16.6561 98.21 16.6801 97.9773 16.6801C97.7292 16.6801 97.5103 16.6366 97.3183 16.5474C97.1255 16.4583 96.975 16.3234 96.8644 16.1451C96.7537 15.9667 96.6992 15.7384 96.6992 15.46C96.6992 15.0446 96.8579 14.7292 97.1776 14.514C97.4965 14.2986 97.9789 14.1812 98.6265 14.1616L99.3311 14.1312V13.9006C99.3311 13.5809 99.2595 13.3569 99.1179 13.2264C98.9764 13.0959 98.777 13.0307 98.5224 13.0307C98.3117 13.0307 98.1116 13.0611 97.9187 13.122C97.7251 13.1829 97.5404 13.2547 97.3623 13.3395L97.1255 12.798C97.3183 12.7001 97.5364 12.6153 97.7813 12.55C98.0294 12.487 98.2881 12.4521 98.5574 12.4521ZM99.3246 14.6248L98.7526 14.651C98.2816 14.6684 97.9488 14.7466 97.7577 14.8858C97.5665 15.025 97.4705 15.2208 97.4705 15.4687C97.4705 15.6862 97.5364 15.8449 97.6665 15.9471C97.7967 16.0494 97.9708 16.0994 98.1856 16.0994C98.5159 16.0994 98.7901 16.0059 99.0032 15.8188C99.2156 15.6318 99.3221 15.3556 99.3221 14.9902V14.6248H99.3246Z" fill="#444039"/>
<path d="M101.68 10.9775C101.8 10.9775 101.9 11.0123 101.987 11.0819C102.072 11.1515 102.115 11.2646 102.115 11.419C102.115 11.5756 102.072 11.6887 101.987 11.7583C101.902 11.8279 101.8 11.8648 101.68 11.8648C101.559 11.8648 101.457 11.8301 101.374 11.7583C101.291 11.6887 101.25 11.5756 101.25 11.419C101.25 11.2624 101.291 11.1515 101.374 11.0819C101.457 11.0123 101.559 10.9775 101.68 10.9775ZM102.048 12.5238V16.6104H101.302V12.5238H102.048Z" fill="#444039"/>
<path d="M105.348 12.4492C105.819 12.4492 106.182 12.5689 106.434 12.806C106.686 13.043 106.815 13.4236 106.815 13.9477V16.6098H106.078V14.0456C106.078 13.7193 106.006 13.4736 105.863 13.3105C105.72 13.1452 105.5 13.0648 105.205 13.0648C104.783 13.0648 104.487 13.1887 104.318 13.4388C104.148 13.6889 104.064 14.05 104.064 14.524V16.6076H103.318V12.5232H103.907L104.016 13.0974H104.057C104.144 12.9538 104.253 12.8342 104.387 12.7385C104.522 12.6428 104.67 12.5689 104.833 12.5211C104.993 12.4731 105.168 12.4492 105.348 12.4492Z" fill="#444039"/>
<path d="M88.3124 25.7205H87.5566V20.3008H90.5945V20.9533H88.3124V22.7932H90.4529V23.4413H88.3124V25.7205Z" fill="#444039"/>
<path d="M91.819 20.0879C91.9386 20.0879 92.0387 20.1227 92.1258 20.1923C92.2104 20.2619 92.2535 20.375 92.2535 20.5294C92.2535 20.6838 92.2104 20.7991 92.1258 20.8687C92.0411 20.9383 91.9386 20.9752 91.819 20.9752C91.6978 20.9752 91.5953 20.9404 91.5131 20.8687C91.4302 20.7991 91.3887 20.686 91.3887 20.5294C91.3887 20.3728 91.4302 20.2619 91.5131 20.1923C91.5953 20.1227 91.6978 20.0879 91.819 20.0879ZM92.1868 21.6342V25.7208H91.4407V21.6342H92.1868Z" fill="#444039"/>
<path d="M95.4869 21.5605C95.9579 21.5605 96.3208 21.6802 96.573 21.9173C96.8252 22.1543 96.9537 22.5349 96.9537 23.059V25.7211H96.2166V23.1591C96.2166 22.8329 96.145 22.5871 96.0018 22.424C95.8587 22.2587 95.639 22.1782 95.3437 22.1782C94.9214 22.1782 94.6261 22.3022 94.4569 22.5523C94.2869 22.8024 94.2023 23.1634 94.2023 23.6376V25.7211H93.457V21.6345H94.046L94.1543 22.2087H94.1957C94.2828 22.0651 94.3918 21.9455 94.5261 21.8498C94.6587 21.7542 94.8084 21.6802 94.9719 21.6324C95.1346 21.5845 95.3063 21.5605 95.4869 21.5605Z" fill="#444039"/>
<path d="M99.7577 21.5645C100.262 21.5645 100.638 21.6753 100.888 21.8994C101.138 22.1234 101.262 22.4757 101.262 22.9585V25.7206H100.729L100.584 25.1269H100.553C100.44 25.2748 100.321 25.3987 100.197 25.4965C100.073 25.5944 99.9319 25.6706 99.7691 25.7184C99.6056 25.7662 99.4104 25.7924 99.1777 25.7924C98.9304 25.7924 98.7107 25.7488 98.5195 25.6597C98.3259 25.5705 98.1762 25.4357 98.0655 25.2574C97.9541 25.079 97.9004 24.8507 97.9004 24.5723C97.9004 24.1569 98.059 23.8415 98.3779 23.6262C98.6977 23.4109 99.1801 23.2934 99.8277 23.2739L100.531 23.2434V23.0129C100.531 22.6932 100.46 22.4692 100.318 22.3387C100.178 22.2082 99.9774 22.143 99.7236 22.143C99.512 22.143 99.3127 22.1734 99.1191 22.2343C98.9255 22.2952 98.7408 22.3669 98.5626 22.4518L98.3259 21.9102C98.5195 21.8123 98.7367 21.7276 98.9824 21.6623C99.2322 21.5971 99.4885 21.5645 99.7577 21.5645ZM100.525 23.7371L99.9538 23.7632C99.482 23.7806 99.1492 23.8589 98.958 23.9981C98.7668 24.1373 98.6716 24.333 98.6716 24.581C98.6716 24.7984 98.7367 24.9572 98.8669 25.0594C98.9971 25.1617 99.1712 25.2116 99.3868 25.2116C99.7171 25.2116 99.9904 25.1182 100.204 24.9311C100.417 24.7441 100.523 24.4679 100.523 24.1025V23.7371H100.525Z" fill="#444039"/>
<path d="M104.533 21.5605C105.005 21.5605 105.368 21.6802 105.62 21.9173C105.872 22.1543 106 22.5349 106 23.059V25.7211H105.263V23.1591C105.263 22.8329 105.192 22.5871 105.048 22.424C104.905 22.2587 104.685 22.1782 104.39 22.1782C103.968 22.1782 103.673 22.3022 103.503 22.5523C103.334 22.8024 103.249 23.1634 103.249 23.6376V25.7211H102.504V21.6345H103.092L103.201 22.2087H103.243C103.329 22.0651 103.438 21.9455 103.573 21.8498C103.706 21.7542 103.855 21.6802 104.018 21.6324C104.179 21.5845 104.353 21.5605 104.533 21.5605Z" fill="#444039"/>
<path d="M108.883 25.7948C108.507 25.7948 108.179 25.7186 107.898 25.5685C107.616 25.4185 107.399 25.188 107.244 24.8769C107.09 24.566 107.012 24.1745 107.012 23.7004C107.012 23.2067 107.095 22.8022 107.26 22.4868C107.425 22.1714 107.655 21.9388 107.947 21.7887C108.239 21.6386 108.575 21.5625 108.952 21.5625C109.174 21.5625 109.382 21.5842 109.576 21.6299C109.77 21.6734 109.932 21.7299 110.063 21.7974L109.841 22.402C109.702 22.3476 109.554 22.2997 109.395 22.2584C109.237 22.2171 109.085 22.1954 108.941 22.1954C108.681 22.1954 108.463 22.2519 108.291 22.3672C108.12 22.4825 107.992 22.6499 107.905 22.874C107.818 23.0957 107.775 23.3698 107.775 23.6961C107.775 24.0136 107.818 24.2789 107.903 24.4986C107.987 24.7182 108.113 24.8835 108.281 24.9966C108.448 25.1097 108.654 25.1662 108.905 25.1662C109.124 25.1662 109.321 25.1423 109.498 25.0923C109.674 25.0423 109.835 24.9792 109.982 24.9031V25.5598C109.839 25.6382 109.68 25.699 109.509 25.7383C109.334 25.7752 109.126 25.7948 108.883 25.7948Z" fill="#444039"/>
<path d="M111.321 20.0879C111.441 20.0879 111.541 20.1227 111.627 20.1923C111.712 20.2619 111.755 20.375 111.755 20.5294C111.755 20.6838 111.712 20.7991 111.627 20.8687C111.542 20.9383 111.441 20.9752 111.321 20.9752C111.199 20.9752 111.097 20.9404 111.014 20.8687C110.932 20.7991 110.891 20.686 110.891 20.5294C110.891 20.3728 110.932 20.2619 111.014 20.1923C111.097 20.1227 111.199 20.0879 111.321 20.0879ZM111.686 21.6342V25.7208H110.94V21.6342H111.686Z" fill="#444039"/>
<path d="M114.987 21.5605C115.458 21.5605 115.821 21.6802 116.073 21.9173C116.325 22.1543 116.454 22.5349 116.454 23.059V25.7211H115.717V23.1591C115.717 22.8329 115.645 22.5871 115.502 22.424C115.358 22.2587 115.139 22.1782 114.843 22.1782C114.421 22.1782 114.126 22.3022 113.957 22.5523C113.787 22.8024 113.702 23.1634 113.702 23.6376V25.7211H112.957V21.6345H113.546L113.654 22.2087H113.696C113.783 22.0651 113.892 21.9455 114.026 21.8498C114.159 21.7542 114.308 21.6802 114.472 21.6324C114.635 21.5845 114.806 21.5605 114.987 21.5605Z" fill="#444039"/>
<path d="M118.849 27.5436C118.304 27.5436 117.885 27.4436 117.591 27.2435C117.298 27.0434 117.152 26.7629 117.152 26.4062C117.152 26.1517 117.233 25.9364 117.393 25.7602C117.554 25.5841 117.778 25.4644 118.067 25.4036C117.959 25.3535 117.865 25.2774 117.787 25.1752C117.709 25.073 117.669 24.9577 117.669 24.8294C117.669 24.6793 117.713 24.5488 117.797 24.4379C117.882 24.327 118.011 24.2204 118.18 24.1182C117.965 24.029 117.791 23.8811 117.661 23.6746C117.531 23.4679 117.465 23.2266 117.465 22.9503C117.465 22.6567 117.528 22.4045 117.652 22.1978C117.776 21.9912 117.956 21.8324 118.19 21.7237C118.426 21.615 118.71 21.5605 119.047 21.5605C119.121 21.5605 119.197 21.5627 119.277 21.5693C119.355 21.5758 119.432 21.5845 119.504 21.5976C119.575 21.6106 119.634 21.6215 119.677 21.6345H121.085V22.076L120.359 22.1869C120.431 22.2805 120.49 22.3914 120.534 22.5197C120.577 22.648 120.601 22.7893 120.601 22.9416C120.601 23.357 120.459 23.6854 120.177 23.9268C119.895 24.1682 119.504 24.2878 119.003 24.2878C118.888 24.2856 118.771 24.2748 118.652 24.2574C118.545 24.3183 118.465 24.3857 118.41 24.4597C118.356 24.5314 118.33 24.6163 118.33 24.7098C118.33 24.7815 118.354 24.8402 118.402 24.8838C118.449 24.9272 118.519 24.962 118.61 24.9816C118.701 25.0034 118.812 25.0143 118.943 25.0143H119.653C120.099 25.0143 120.437 25.1077 120.674 25.297C120.912 25.484 121.031 25.758 121.031 26.1191C121.031 26.5758 120.844 26.9281 120.468 27.1761C120.097 27.4218 119.556 27.5436 118.849 27.5436ZM118.875 26.9999C119.195 26.9999 119.46 26.9673 119.673 26.9042C119.886 26.8389 120.047 26.7476 120.155 26.6302C120.264 26.5106 120.318 26.3714 120.318 26.2082C120.318 26.0603 120.284 25.9473 120.212 25.869C120.142 25.7906 120.038 25.7385 119.899 25.7124C119.76 25.6863 119.591 25.6711 119.388 25.6711H118.714C118.541 25.6711 118.391 25.6994 118.263 25.7537C118.134 25.8081 118.034 25.8864 117.963 25.9886C117.891 26.0908 117.856 26.217 117.856 26.3692C117.856 26.5736 117.946 26.7302 118.121 26.8389C118.299 26.9455 118.549 26.9999 118.875 26.9999ZM119.038 23.779C119.312 23.779 119.518 23.7071 119.653 23.5614C119.788 23.4157 119.857 23.2091 119.857 22.9394C119.857 22.6501 119.788 22.4327 119.651 22.287C119.512 22.1413 119.307 22.0673 119.037 22.0673C118.771 22.0673 118.569 22.1413 118.43 22.2914C118.291 22.4414 118.221 22.6589 118.221 22.946C118.221 23.2113 118.291 23.4157 118.432 23.5593C118.571 23.705 118.775 23.779 119.038 23.779Z" fill="#444039"/>
<path d="M90.6468 33.3741C90.6468 33.696 90.567 33.97 90.4084 34.1983C90.2497 34.4267 90.026 34.6029 89.7364 34.7225C89.4476 34.8443 89.1043 34.9052 88.7064 34.9052C88.5071 34.9052 88.3151 34.8943 88.1353 34.8747C87.9547 34.853 87.7855 34.8226 87.6285 34.7834C87.4722 34.7442 87.3331 34.6942 87.207 34.6355V33.9156C87.4112 34.0005 87.648 34.0787 87.9181 34.1505C88.1874 34.2245 88.4656 34.2593 88.752 34.2593C89.0017 34.2593 89.2108 34.2245 89.38 34.157C89.5501 34.0896 89.6778 33.994 89.7624 33.87C89.8495 33.746 89.8934 33.5981 89.8934 33.4242C89.8934 33.2501 89.8519 33.1066 89.7673 32.9891C89.6827 32.8717 89.5501 32.763 89.3695 32.6651C89.1872 32.5672 88.9497 32.4607 88.6568 32.3498C88.4526 32.2758 88.2655 32.191 88.0979 32.0953C87.9311 31.9996 87.7855 31.8908 87.6634 31.7669C87.5422 31.6429 87.4462 31.4972 87.3811 31.3319C87.3136 31.1644 87.2811 30.9731 87.2811 30.7556C87.2811 30.4576 87.3551 30.201 87.5007 29.9878C87.648 29.7747 87.853 29.6138 88.1174 29.5007C88.3826 29.3876 88.6869 29.3311 89.0367 29.3311C89.3239 29.3311 89.5908 29.3593 89.8389 29.4158C90.0862 29.4725 90.323 29.5507 90.5475 29.6486L90.3059 30.2793C90.0952 30.1923 89.8845 30.1227 89.6737 30.0683C89.4606 30.014 89.2409 29.9856 89.0131 29.9856C88.8024 29.9856 88.6259 30.0162 88.4803 30.0792C88.3346 30.1401 88.2264 30.2292 88.1499 30.3424C88.0743 30.4555 88.0377 30.5903 88.0377 30.7469C88.0377 30.923 88.0767 31.0687 88.1565 31.184C88.2354 31.2993 88.3615 31.4059 88.5307 31.4994C88.6999 31.5929 88.9236 31.6929 89.1978 31.7995C89.5061 31.9192 89.7689 32.0453 89.9845 32.1779C90.1993 32.3106 90.3645 32.4716 90.4775 32.6607C90.5906 32.8499 90.6468 33.087 90.6468 33.3741Z" fill="#444039"/>
<path d="M95.1945 32.7805C95.1945 33.1176 95.1514 33.4156 95.0619 33.6787C94.9748 33.9419 94.8471 34.1638 94.6795 34.3464C94.5127 34.5269 94.3126 34.6661 94.0775 34.7618C93.8432 34.8575 93.578 34.9054 93.2826 34.9054C93.0068 34.9054 92.7522 34.8575 92.522 34.7618C92.2917 34.6661 92.0916 34.5291 91.924 34.3464C91.7572 34.1638 91.6262 33.9419 91.5351 33.6787C91.444 33.4156 91.3984 33.1155 91.3984 32.7805C91.3984 32.3325 91.4741 31.9519 91.6287 31.6365C91.7808 31.3212 92.0005 31.082 92.2852 30.9167C92.57 30.7514 92.9108 30.6709 93.3062 30.6709C93.6821 30.6709 94.0108 30.7536 94.2947 30.9189C94.5795 31.0841 94.7991 31.3234 94.9578 31.6387C95.1164 31.954 95.1945 32.3347 95.1945 32.7805ZM92.1607 32.7805C92.1607 33.0937 92.2006 33.3634 92.2803 33.5917C92.3609 33.8179 92.4845 33.9919 92.6497 34.1115C92.8173 34.2333 93.0329 34.2942 93.2957 34.2942C93.5544 34.2942 93.7691 34.2333 93.9367 34.1115C94.1035 33.9897 94.228 33.8157 94.3061 33.5917C94.3842 33.3656 94.4257 33.0959 94.4257 32.7805C94.4257 32.4695 94.3866 32.202 94.3061 31.9802C94.228 31.7583 94.1035 31.5866 93.9367 31.4691C93.7691 31.3495 93.5544 31.2907 93.2867 31.2907C92.8954 31.2907 92.6106 31.4212 92.4284 31.6822C92.2527 31.9432 92.1607 32.3086 92.1607 32.7805Z" fill="#444039"/>
<path d="M96.9723 34.8311H96.2246V29.0635H96.9723V34.8311Z" fill="#444039"/>
<path d="M101.706 30.7463V34.8328H101.109L101.004 34.2739H100.963C100.879 34.4153 100.77 34.5327 100.637 34.6263C100.504 34.7198 100.355 34.7915 100.19 34.8372C100.024 34.8851 99.8478 34.9068 99.6631 34.9068C99.3507 34.9068 99.0831 34.8546 98.8659 34.7502C98.6462 34.6458 98.481 34.4849 98.3704 34.2674C98.2573 34.0478 98.2012 33.7672 98.2012 33.4192V30.7463H98.9488V33.3148C98.9488 33.6433 99.0204 33.889 99.1612 34.0521C99.3027 34.2152 99.5199 34.2978 99.8112 34.2978C100.096 34.2978 100.32 34.2413 100.487 34.1282C100.654 34.0151 100.774 33.852 100.845 33.6346C100.918 33.4192 100.954 33.1539 100.954 32.8385V30.7441H101.706V30.7463Z" fill="#444039"/>
<path d="M104.4 34.3007C104.506 34.3007 104.612 34.292 104.721 34.2724C104.829 34.2529 104.923 34.229 105.003 34.2007V34.7727C104.919 34.8096 104.808 34.8423 104.669 34.8684C104.53 34.8945 104.387 34.9075 104.241 34.9075C104.019 34.9075 103.817 34.8684 103.637 34.7922C103.456 34.7161 103.313 34.5857 103.205 34.3986C103.098 34.2138 103.044 33.9571 103.044 33.6265V31.3212H102.477V30.9754L103.07 30.7013L103.332 29.8184H103.791V30.7448H104.973V31.3191H103.791V33.6135C103.791 33.844 103.846 34.0158 103.956 34.1289C104.067 34.2442 104.215 34.3007 104.4 34.3007Z" fill="#444039"/>
<path d="M106.208 29.2002C106.327 29.2002 106.427 29.235 106.514 29.3046C106.599 29.3741 106.642 29.4873 106.642 29.6417C106.642 29.7982 106.599 29.9113 106.514 29.981C106.429 30.0505 106.327 30.0875 106.208 30.0875C106.086 30.0875 105.984 30.0527 105.901 29.981C105.819 29.9113 105.777 29.7982 105.777 29.6417C105.777 29.4851 105.819 29.3741 105.901 29.3046C105.984 29.235 106.086 29.2002 106.208 29.2002ZM106.575 30.7465V34.833H105.829V30.7465H106.575Z" fill="#444039"/>
<path d="M111.411 32.7805C111.411 33.1176 111.368 33.4156 111.279 33.6787C111.192 33.9419 111.064 34.1638 110.896 34.3464C110.729 34.5269 110.529 34.6661 110.294 34.7618C110.06 34.8575 109.795 34.9054 109.499 34.9054C109.223 34.9054 108.969 34.8575 108.739 34.7618C108.509 34.6661 108.308 34.5291 108.141 34.3464C107.973 34.1638 107.843 33.9419 107.752 33.6787C107.661 33.4156 107.615 33.1155 107.615 32.7805C107.615 32.3325 107.691 31.9519 107.845 31.6365C107.998 31.3212 108.217 31.082 108.502 30.9167C108.786 30.7514 109.128 30.6709 109.523 30.6709C109.899 30.6709 110.227 30.7536 110.512 30.9189C110.796 31.0841 111.016 31.3234 111.175 31.6387C111.333 31.954 111.411 32.3347 111.411 32.7805ZM108.378 32.7805C108.378 33.0937 108.417 33.3634 108.497 33.5917C108.578 33.8179 108.701 33.9919 108.866 34.1115C109.034 34.2333 109.249 34.2942 109.512 34.2942C109.77 34.2942 109.986 34.2333 110.153 34.1115C110.32 33.9897 110.444 33.8157 110.523 33.5917C110.601 33.3656 110.642 33.0959 110.642 32.7805C110.642 32.4695 110.603 32.202 110.523 31.9802C110.444 31.7583 110.32 31.5866 110.153 31.4691C109.986 31.3495 109.77 31.2907 109.504 31.2907C109.112 31.2907 108.827 31.4212 108.645 31.6822C108.469 31.9432 108.378 32.3086 108.378 32.7805Z" fill="#444039"/>
<path d="M114.471 30.6729C114.942 30.6729 115.305 30.7924 115.557 31.0295C115.81 31.2666 115.938 31.6472 115.938 32.1713V34.8333H115.201V32.2713C115.201 31.9452 115.129 31.6994 114.986 31.5363C114.842 31.371 114.623 31.2905 114.327 31.2905C113.906 31.2905 113.61 31.4145 113.441 31.6646C113.271 31.9147 113.187 32.2757 113.187 32.7499V34.8333H112.441V30.7468H113.03L113.139 31.3209H113.18C113.267 31.1774 113.376 31.0578 113.51 30.9621C113.643 30.8664 113.793 30.7924 113.956 30.7446C114.119 30.6968 114.291 30.6729 114.471 30.6729Z" fill="#444039"/>
</g>
<defs>
<clipPath id="clip0_219_81537">
<rect width="121.22" height="48" fill="white"/>
</clipPath>
</defs>
</svg>
