<svg width="156" height="203" viewBox="0 0 156 203" fill="none" xmlns="http://www.w3.org/2000/svg">
<path d="M87.7871 148.078H155.858V164.911H127.31L87.7871 148.078Z" fill="url(#paint0_linear_219_81855)"/>
<path d="M71.8281 1.36975C72.9423 1.07592 74.1616 1.07592 75.444 1.41173L123.691 14.3196C129.136 15.7678 133.55 22.9668 133.55 30.3547V153.892C133.55 159.559 130.965 163.715 127.307 164.701L131.553 163.568C135.211 162.581 137.797 158.426 137.797 152.759V29.2213C137.797 21.8124 133.382 14.6344 127.937 13.1862L79.6696 0.25737C78.3872 -0.0784438 77.1889 -0.0784438 76.0537 0.215393L71.8281 1.36975Z" fill="url(#paint1_linear_219_81855)"/>
<path d="M71.8297 1.3693C68.1717 2.35575 65.5859 6.51145 65.5859 12.1783V135.716C65.5859 143.125 70.0007 150.303 75.4455 151.751L123.692 164.659C124.975 164.995 126.173 164.995 127.308 164.701C130.966 163.714 133.552 159.559 133.552 153.892V30.3542C133.552 22.9453 129.137 15.7673 123.692 14.3191L75.4455 1.39029C74.1632 1.05448 72.9439 1.05448 71.8297 1.3693Z" fill="url(#paint2_linear_219_81855)"/>
<path d="M72.462 3.82458C73.366 3.57272 74.3751 3.57272 75.4052 3.86655L123.757 16.7954C128.193 17.9917 131.788 23.8475 131.788 29.8921V153.493C131.788 158.131 129.665 161.51 126.679 162.308C125.775 162.56 124.766 162.56 123.736 162.266L75.3841 149.337C70.9484 148.141 67.3535 142.285 67.3535 136.24V12.6397C67.3535 8.02225 69.4768 4.62213 72.462 3.82458Z" fill="url(#paint3_linear_219_81855)"/>
<path d="M91.0866 16.2706C91.1707 16.2496 91.2758 16.2496 91.3809 16.2706L103.7 19.5658C104.142 19.6917 104.499 20.2584 104.499 20.8671C104.499 21.3288 104.289 21.6646 103.994 21.7486C103.91 21.7696 103.805 21.7696 103.7 21.7486L91.3809 18.4534C90.9394 18.3275 90.582 17.7608 90.582 17.1521C90.582 16.6694 90.7923 16.3336 91.0866 16.2706Z" fill="white"/>
<path d="M74.1622 11.0868C74.3093 11.0448 74.4775 11.1287 74.6036 11.3176C74.7718 11.5695 74.7718 11.9263 74.6036 12.0942L73.5735 13.2276L74.6036 14.9066C74.7718 15.1585 74.7718 15.5153 74.6036 15.6832C74.5616 15.7252 74.5196 15.7462 74.4565 15.7672C74.4144 15.7882 74.3514 15.7882 74.3093 15.7672C74.2042 15.7462 74.0991 15.6622 74.015 15.5363L72.6906 13.3745C72.5224 13.1226 72.5224 12.7658 72.6906 12.5979L74.015 11.1497C74.0781 11.1287 74.1201 11.1078 74.1622 11.0868Z" fill="white"/>
<path d="M138.368 51.0285C138.179 50.9656 137.948 50.9656 137.738 51.0285C136.771 51.2804 135.993 52.5607 135.993 53.862V68.5118C135.993 69.5193 136.455 70.2539 137.107 70.4218L135.804 70.065C135.152 69.8971 134.689 69.1625 134.689 68.155V53.5262C134.689 52.2249 135.467 50.9446 136.434 50.6927C136.666 50.6298 136.876 50.6298 137.065 50.6927L138.368 51.0285Z" fill="url(#paint4_linear_219_81855)"/>
<path d="M138.368 51.028C139.019 51.1959 139.482 51.9305 139.482 52.938V67.5878C139.482 68.8891 138.704 70.1694 137.737 70.4213C137.506 70.4842 137.296 70.4842 137.106 70.4213C136.455 70.2534 135.992 69.5188 135.992 68.5113V53.8614C135.992 52.5602 136.77 51.2799 137.737 51.028C137.968 50.9651 138.179 50.986 138.368 51.028Z" fill="url(#paint5_linear_219_81855)"/>
<path d="M72.3129 19.9228C72.7334 19.8179 73.2169 19.7969 73.7004 19.9438L125.164 33.7122C127.266 34.2789 128.948 37.0283 128.948 39.8827V81.7755C128.948 83.9583 127.96 85.5534 126.551 85.9312C126.131 86.0361 125.647 86.0571 125.164 85.9102L73.7004 72.1419C71.5981 71.5752 69.9163 68.8257 69.9163 65.9713V24.0785C69.8953 21.8957 70.9044 20.3006 72.3129 19.9228Z" fill="url(#paint6_linear_219_81855)"/>
<path d="M61.9263 21.4953C62.3678 21.3694 62.8513 21.3694 63.3558 21.5163L116.69 35.7884C118.856 36.376 120.621 39.2305 120.621 42.1898V83.4319C120.621 85.6987 119.591 87.3568 118.141 87.7345C117.699 87.8605 117.216 87.8605 116.711 87.7136L63.3768 73.4415C61.2115 72.8538 59.4456 69.9994 59.4456 67.04V25.7979C59.4246 23.5312 60.4757 21.8731 61.9263 21.4953Z" fill="url(#paint7_linear_219_81855)"/>
<path d="M116.688 35.7687L63.3536 21.4967C62.849 21.3707 62.3655 21.3707 61.924 21.4757C60.4735 21.8745 59.4434 23.5115 59.4434 25.7783V30.1019L120.619 46.4728V42.1492C120.619 39.2108 118.853 36.3564 116.688 35.7687Z" fill="url(#paint8_linear_219_81855)"/>
<path d="M62.6398 23.9308C62.7239 23.9098 62.829 23.9098 62.9131 23.9308L117.341 38.4967C117.761 38.6016 118.097 39.1683 118.097 39.735V42.9252C118.097 43.366 117.887 43.6808 117.614 43.7648C117.53 43.7858 117.425 43.7858 117.341 43.7648L62.9131 29.1989C62.4926 29.0939 62.1562 28.5272 62.1562 27.9605V24.7703C62.1562 24.3296 62.3455 24.0147 62.6398 23.9308Z" fill="url(#paint9_linear_219_81855)"/>
<path d="M115.261 38.9592C115.408 38.9172 115.556 38.9172 115.724 38.9592C116.439 39.1481 117.006 40.0926 117.006 41.0371C117.006 41.7717 116.67 42.3174 116.186 42.4433C116.039 42.4853 115.892 42.4853 115.724 42.4433C115.009 42.2544 114.441 41.3099 114.441 40.3654C114.441 39.6308 114.778 39.0851 115.261 38.9592Z" fill="white"/>
<path d="M115.681 39.5479C115.702 39.5479 115.702 39.5479 115.723 39.5479C115.786 39.5688 115.849 39.6528 115.849 39.7367V40.5553L116.459 40.7232C116.522 40.7442 116.585 40.8281 116.585 40.9121C116.585 40.9751 116.543 41.038 116.501 41.038C116.48 41.038 116.48 41.038 116.459 41.038L115.849 40.8701V41.6887C115.849 41.7516 115.807 41.8146 115.765 41.8146C115.744 41.8146 115.744 41.8146 115.723 41.8146C115.66 41.7936 115.597 41.7097 115.597 41.6257V40.8072L114.987 40.6392C114.924 40.6183 114.861 40.5343 114.861 40.4504C114.861 40.3874 114.903 40.3244 114.945 40.3244C114.966 40.3244 114.966 40.3244 114.987 40.3244L115.597 40.4923V39.6738C115.618 39.6108 115.639 39.5688 115.681 39.5479Z" fill="url(#paint10_linear_219_81855)"/>
<path d="M71.4941 39.1075C71.5572 39.0865 71.6202 39.0865 71.7043 39.1075L114.759 50.6092C115.074 50.6931 115.326 51.1129 115.326 51.5326C115.326 51.8685 115.179 52.0993 114.969 52.1623C114.906 52.1833 114.843 52.1833 114.759 52.1623L71.7043 40.6607C71.389 40.5767 71.1367 40.157 71.1367 39.7372C71.1367 39.4014 71.2839 39.1705 71.4941 39.1075Z" fill="url(#paint11_linear_219_81855)"/>
<path d="M65.0197 35.4769C65.251 35.4139 65.5033 35.4139 65.7766 35.4769C66.9328 35.7917 67.8578 37.3029 67.8578 38.877C67.8578 40.0734 67.3112 40.9549 66.5334 41.1648C66.3021 41.2277 66.0498 41.2277 65.7766 41.1648C64.6203 40.8499 63.6953 39.3388 63.6953 37.7646C63.6953 36.5683 64.2419 35.6868 65.0197 35.4769Z" fill="#2BDE5E"/>
<path d="M64.8078 37.7225C64.8708 37.7015 64.9549 37.7435 65.018 37.8484L65.5225 38.646L66.5106 37.4497C66.5316 37.4287 66.5527 37.4077 66.5947 37.4077C66.6578 37.3867 66.7419 37.4287 66.8049 37.5126C66.889 37.6386 66.889 37.8065 66.826 37.8904L65.6907 39.2547C65.6697 39.2757 65.6487 39.2966 65.6066 39.2966C65.5856 39.2966 65.5436 39.2966 65.5436 39.2966C65.4805 39.2757 65.4385 39.2337 65.3964 39.1707L64.7447 38.1213C64.6606 37.9954 64.6606 37.8275 64.7447 37.7435C64.7657 37.7435 64.7868 37.7225 64.8078 37.7225Z" fill="white"/>
<path d="M71.4941 48.8029C71.5572 48.7819 71.6202 48.7819 71.7043 48.8029L114.759 60.3045C115.074 60.3884 115.326 60.8082 115.326 61.228C115.326 61.5638 115.179 61.7946 114.969 61.8576C114.906 61.8786 114.843 61.8786 114.759 61.8576L71.7043 50.356C71.389 50.272 71.1367 49.8523 71.1367 49.4325C71.1367 49.1177 71.2839 48.8658 71.4941 48.8029Z" fill="url(#paint12_linear_219_81855)"/>
<path d="M65.0197 45.1722C65.251 45.1093 65.5033 45.1093 65.7766 45.1722C66.9328 45.487 67.8578 46.9982 67.8578 48.5723C67.8578 49.7687 67.3112 50.6502 66.5334 50.8601C66.3021 50.923 66.0498 50.923 65.7766 50.8601C64.6203 50.5452 63.6953 49.0341 63.6953 47.46C63.6953 46.2636 64.2419 45.3821 65.0197 45.1722Z" fill="#2BDE5E"/>
<path d="M64.8078 47.4178C64.8708 47.3968 64.9549 47.4388 65.018 47.5438L65.5225 48.3413L66.5106 47.145C66.5316 47.124 66.5527 47.103 66.5947 47.103C66.6578 47.082 66.7419 47.124 66.8049 47.2079C66.889 47.3339 66.889 47.5018 66.826 47.5857L65.6907 48.95C65.6697 48.971 65.6487 48.992 65.6066 48.992C65.5856 48.992 65.5436 48.992 65.5436 48.992C65.4805 48.971 65.4385 48.929 65.3964 48.866L64.7447 47.8166C64.6606 47.6907 64.6606 47.5228 64.7447 47.4388C64.7657 47.4388 64.7868 47.4178 64.8078 47.4178Z" fill="white"/>
<path d="M71.4941 58.5206C71.5572 58.4996 71.6202 58.4996 71.7043 58.5206L114.759 70.0222C115.074 70.1062 115.326 70.526 115.326 70.9457C115.326 71.2815 115.179 71.5124 114.969 71.5754C114.906 71.5964 114.843 71.5964 114.759 71.5754L71.7043 60.0738C71.389 59.9898 71.1367 59.57 71.1367 59.1503C71.1367 58.8145 71.2839 58.5626 71.4941 58.5206Z" fill="url(#paint13_linear_219_81855)"/>
<path d="M65.0197 54.8695C65.251 54.8065 65.5033 54.8065 65.7766 54.8695C66.9328 55.1843 67.8578 56.6955 67.8578 58.2696C67.8578 59.4659 67.3112 60.3475 66.5334 60.5573C66.3021 60.6203 66.0498 60.6203 65.7766 60.5573C64.6203 60.2425 63.6953 58.7313 63.6953 57.1572C63.6953 55.9609 64.2419 55.0794 65.0197 54.8695Z" fill="#2BDE5E"/>
<path d="M64.8078 57.1151C64.8708 57.0941 64.9549 57.1361 65.018 57.241L65.5225 58.0386L66.5106 56.8422C66.5316 56.8213 66.5527 56.8003 66.5947 56.8003C66.6578 56.7793 66.7419 56.8213 66.8049 56.9052C66.889 57.0311 66.889 57.199 66.826 57.283L65.6907 58.6472C65.6697 58.6682 65.6487 58.6892 65.6066 58.6892C65.5856 58.6892 65.5436 58.6892 65.5436 58.6892C65.4805 58.6682 65.4385 58.6263 65.3964 58.5633L64.7447 57.5139C64.6606 57.3879 64.6606 57.22 64.7447 57.1361C64.7657 57.1361 64.7868 57.1361 64.8078 57.1151Z" fill="white"/>
<path d="M71.4941 68.2169C71.5572 68.1959 71.6202 68.1959 71.7043 68.2169L114.759 79.7185C115.074 79.8025 115.326 80.2223 115.326 80.642C115.326 80.9778 115.179 81.2087 114.969 81.2717C114.906 81.2927 114.843 81.2927 114.759 81.2717L71.7043 69.7701C71.389 69.6861 71.1367 69.2663 71.1367 68.8466C71.1367 68.5108 71.2839 68.2799 71.4941 68.2169Z" fill="url(#paint14_linear_219_81855)"/>
<path d="M65.0197 64.5863C65.251 64.5233 65.5033 64.5233 65.7766 64.5863C66.9328 64.9011 67.8578 66.4123 67.8578 67.9864C67.8578 69.1827 67.3112 70.0642 66.5334 70.2741C66.3021 70.3371 66.0498 70.3371 65.7766 70.2741C64.6203 69.9593 63.6953 68.4481 63.6953 66.874C63.6953 65.6567 64.2419 64.7962 65.0197 64.5863Z" fill="#2BDE5E"/>
<path d="M64.8078 66.8319C64.8708 66.8109 64.9549 66.8529 65.018 66.9578L65.5225 67.7554L66.5106 66.559C66.5316 66.5381 66.5527 66.5171 66.5947 66.5171C66.6578 66.4961 66.7419 66.5381 66.8049 66.622C66.889 66.7479 66.889 66.9158 66.826 66.9998L65.6907 68.364C65.6697 68.385 65.6487 68.406 65.6066 68.406C65.5856 68.406 65.5436 68.406 65.5436 68.406C65.4805 68.385 65.4385 68.3431 65.3964 68.2801L64.7447 67.2307C64.6606 67.1047 64.6606 66.9368 64.7447 66.8529C64.7657 66.8529 64.7868 66.8319 64.8078 66.8319Z" fill="white"/>
<path d="M59.1523 171.312H35.9434V175.321H59.1523V171.312Z" fill="url(#paint15_linear_219_81855)"/>
<path d="M33.8418 108.348C33.8418 108.495 34.073 108.662 34.5145 108.767C35.3975 108.998 36.827 108.998 37.71 108.767C38.1514 108.641 38.3827 108.495 38.3827 108.348V174.713C38.3827 174.86 38.1514 175.028 37.71 175.133C36.827 175.363 35.3975 175.363 34.5145 175.133C34.073 175.007 33.8418 174.86 33.8418 174.713V108.348Z" fill="url(#paint16_linear_219_81855)"/>
<path d="M0.140625 103.709C0.140625 106.165 3.6514 108.641 10.673 110.509C24.7161 114.266 47.4835 114.266 61.5266 110.509C68.5482 108.62 72.059 106.165 72.059 103.709V105.262C72.059 107.718 68.5482 110.194 61.5266 112.062C47.4835 115.819 24.7161 115.819 10.673 112.062C3.6514 110.173 0.140625 107.718 0.140625 105.241V103.709Z" fill="url(#paint17_linear_219_81855)"/>
<path d="M0.140625 103.709C0.140625 101.253 3.6514 98.7765 10.673 96.9085C24.7161 93.1516 47.4835 93.1516 61.5266 96.9085C68.5482 98.7975 72.059 101.253 72.059 103.709C72.059 106.164 68.5482 108.641 61.5266 110.509C47.4835 114.266 24.7161 114.266 10.673 110.509C3.6514 108.641 0.140625 106.164 0.140625 103.709Z" fill="url(#paint18_linear_219_81855)"/>
<path d="M10.2715 105.094C10.2715 104.716 10.9442 104.338 12.2897 104.044C14.9805 103.457 19.3322 103.457 22.0231 104.044C23.3686 104.338 24.0413 104.716 24.0413 105.094C24.0413 105.471 23.3686 105.849 22.0231 106.143C19.3322 106.731 14.9805 106.731 12.2897 106.143C10.9442 105.849 10.2715 105.471 10.2715 105.094Z" fill="url(#paint19_linear_219_81855)"/>
<path d="M9.1582 91.3037L10.2304 105.156C10.2304 105.45 10.6298 105.723 11.4497 105.933C13.0684 106.373 15.6962 106.373 17.315 105.933C18.1349 105.723 18.5343 105.429 18.5343 105.156L19.6064 91.3037H9.1582Z" fill="url(#paint20_linear_219_81855)"/>
<path d="M17.7357 98.9226C15.8857 99.4263 12.8795 99.4263 11.0295 98.9226C10.2727 98.7127 9.83121 98.4608 9.70508 98.209L10.2517 105.177C10.2517 105.471 10.6511 105.744 11.471 105.954C13.0897 106.394 15.7175 106.394 17.3363 105.954C18.1562 105.744 18.5556 105.45 18.5556 105.177L19.1022 98.209C18.934 98.4608 18.4925 98.7127 17.7357 98.9226Z" fill="url(#paint21_linear_219_81855)"/>
<path d="M9.68555 98.0619C9.68555 97.7471 10.148 97.4113 11.052 97.1804C12.881 96.6977 15.8662 96.6977 17.6952 97.1804C18.6202 97.4323 19.0616 97.7471 19.0616 98.0619C19.0616 98.3767 18.5991 98.7126 17.6952 98.9434C15.8662 99.4262 12.881 99.4262 11.052 98.9434C10.148 98.7126 9.68555 98.3977 9.68555 98.0619Z" fill="url(#paint22_linear_219_81855)"/>
<path d="M12.6716 91.3037H10.5273L11.3052 105.891C11.3472 105.912 11.4103 105.912 11.4523 105.933C11.8097 106.038 12.2302 106.1 12.6506 106.163V91.3037H12.6716Z" fill="url(#paint23_linear_219_81855)"/>
<path d="M9.28434 92.8149C9.55763 92.9828 9.95706 93.1507 10.4826 93.2976C12.648 93.8853 16.1587 93.8853 18.303 93.2976C18.8286 93.1507 19.228 93.0038 19.5013 92.8149L19.6275 91.3037H9.1582L9.28434 92.8149Z" fill="url(#paint24_linear_219_81855)"/>
<path d="M8.86523 91.4091C8.86523 91.0313 9.41182 90.6535 10.484 90.3597C12.6493 89.772 16.1601 89.772 18.3044 90.3597C19.3765 90.6535 19.9231 91.0313 19.9231 91.4091C19.9231 91.7869 19.3765 92.1647 18.3044 92.4585C16.1391 93.0462 12.6283 93.0462 10.484 92.4585C9.3908 92.1647 8.86523 91.7869 8.86523 91.4091Z" fill="url(#paint25_linear_219_81855)"/>
<path d="M16.4121 91.4088L18.6825 87.2531C18.8718 86.9173 19.2922 86.7704 19.6496 86.9593L20.8269 87.547" stroke="url(#paint26_linear_219_81855)" stroke-width="2" stroke-miterlimit="10" stroke-linecap="round" stroke-linejoin="round"/>
<path d="M29.0017 103.835C28.6863 103.751 28.4551 103.373 28.4551 102.869V82.7416C28.4551 82.091 28.8545 81.4403 29.317 81.3144L50.9493 75.5216C51.0544 75.5006 51.1805 75.5006 51.2646 75.5216C51.5799 75.6056 51.8112 75.9833 51.8112 76.4871V96.6149C51.8112 97.2655 51.4118 97.9162 50.9493 98.0421L29.317 103.835C29.2119 103.856 29.1068 103.856 29.0017 103.835Z" fill="url(#paint27_linear_219_81855)"/>
<mask id="mask0_219_81855" style="mask-type:alpha" maskUnits="userSpaceOnUse" x="28" y="75" width="24" height="29">
<path d="M29.0017 103.835C28.6863 103.751 28.4551 103.373 28.4551 102.869V82.7416C28.4551 82.091 28.8545 81.4403 29.317 81.3144L50.9493 75.5216C51.0544 75.5006 51.1805 75.5006 51.2646 75.5216C51.5799 75.6056 51.8112 75.9833 51.8112 76.4871V96.6149C51.8112 97.2655 51.4118 97.9162 50.9493 98.0421L29.317 103.835C29.2119 103.856 29.1068 103.856 29.0017 103.835Z" fill="url(#paint28_linear_219_81855)"/>
</mask>
<g mask="url(#mask0_219_81855)">
<g opacity="0.2">
<path d="M53.2936 75.1007C53.1817 75.0758 53.0697 75.0758 52.9578 75.1007L31.0298 80.9847C30.5074 81.1216 30.097 81.8057 30.097 82.5148V99.7191C30.097 100.254 30.3457 100.652 30.694 100.752C30.8059 100.776 30.9179 100.776 31.0298 100.752L52.9578 94.88C53.4802 94.7431 53.8906 94.0589 53.8906 93.3499V76.1332C53.8906 75.5858 53.6419 75.2002 53.2936 75.1007Z" fill="#7D8592"/>
<path d="M46.3657 75.5386L52.9578 73.7721C53.0822 73.7348 53.1941 73.7348 53.2936 73.7721C53.6419 73.8716 53.8906 74.2573 53.8906 74.8046V92.0089C53.8906 92.7179 53.4677 93.4021 52.9578 93.539L46.3657 95.3054V75.5386Z" fill="#7D8592"/>
<path d="M31.0298 79.6562L52.9578 73.7721C53.0822 73.7348 53.1941 73.7348 53.2936 73.7721C53.6419 73.8716 53.8906 74.2573 53.8906 74.8046V77.6036L30.0845 83.9852V81.1863C30.097 80.4772 30.5074 79.793 31.0298 79.6562Z" fill="#7D8592"/>
</g>
</g>
<path d="M28.8164 104.107C28.8164 104.191 28.9425 104.275 29.1738 104.338L43.9737 108.305C44.4572 108.431 45.2351 108.431 45.7186 108.305L67.3508 102.512C67.5821 102.449 67.7082 102.365 67.7082 102.281V102.911C67.7082 102.995 67.5821 103.079 67.3508 103.142L45.7186 108.935C45.2351 109.06 44.4572 109.06 43.9737 108.935L29.1738 104.968C28.9425 104.905 28.8164 104.821 28.8164 104.737V104.107Z" fill="url(#paint29_linear_219_81855)"/>
<path d="M28.8164 104.107C28.8164 104.023 28.9425 103.939 29.1738 103.876L50.8061 98.0837C51.2896 97.9578 52.0674 97.9578 52.5509 98.0837L67.3508 102.051C67.5821 102.113 67.7082 102.197 67.7082 102.281C67.7082 102.365 67.5821 102.449 67.3508 102.512L45.7186 108.305C45.2351 108.431 44.4572 108.431 43.9737 108.305L29.1738 104.338C28.9215 104.275 28.8164 104.191 28.8164 104.107Z" fill="url(#paint30_linear_219_81855)"/>
<path d="M58.0779 101.086C58.0779 101.128 57.9939 101.191 57.8467 101.233L40.6712 105.83C40.3769 105.914 39.8934 105.914 39.5991 105.83L33.6707 104.235C33.5235 104.193 33.4395 104.151 33.4395 104.088C33.4395 104.046 33.5235 103.983 33.6707 103.941L50.8462 99.3442C51.1405 99.2603 51.624 99.2603 51.9183 99.3442L57.8467 100.939C57.9939 100.981 58.0779 101.023 58.0779 101.086Z" fill="url(#paint31_linear_219_81855)"/>
<path d="M58.0789 104.15C58.0789 104.192 58.0158 104.234 57.9107 104.255L51.0994 106.081C50.8681 106.144 50.5107 106.144 50.2795 106.081L46.8108 105.157C46.6846 105.115 46.6426 105.094 46.6426 105.052C46.6426 105.01 46.7056 104.968 46.8108 104.947L53.6221 103.121C53.8533 103.058 54.2107 103.058 54.442 103.121L57.8897 104.045C58.0158 104.066 58.0789 104.108 58.0789 104.15Z" fill="url(#paint32_linear_219_81855)"/>
<path d="M54.6256 72.4435C54.5137 72.4186 54.4018 72.4186 54.2898 72.4435L32.3618 78.3275C31.8394 78.4643 31.429 79.1485 31.429 79.8576V97.0618C31.429 97.5967 31.6777 97.9948 32.026 98.0943C32.138 98.1192 32.2499 98.1192 32.3618 98.0943L54.2898 92.2227C54.8122 92.0859 55.2227 91.4017 55.2227 90.6927V73.476C55.2227 72.9286 54.9739 72.543 54.6256 72.4435Z" fill="url(#paint33_linear_219_81855)"/>
<path d="M47.6977 74.2095L54.2898 72.443C54.4142 72.4057 54.5261 72.4057 54.6256 72.443C54.9739 72.5425 55.2227 72.9282 55.2227 73.4755V90.6798C55.2227 91.3888 54.7998 92.073 54.2898 92.2099L47.6977 93.9763V74.2095Z" fill="url(#paint34_linear_219_81855)"/>
<path d="M32.3618 78.3271L54.2898 72.443C54.4142 72.4057 54.5261 72.4057 54.6256 72.443C54.9739 72.5425 55.2227 72.9282 55.2227 73.4755V76.2745L31.4165 82.6561V79.8572C31.429 79.1481 31.8394 78.4639 32.3618 78.3271Z" fill="url(#paint35_linear_219_81855)"/>
<path d="M46.002 89.7222C45.9646 89.7098 45.9149 89.7098 45.8651 89.7222L34.0989 92.8695C33.8875 92.9192 33.7258 93.2054 33.7258 93.479V95.8675C33.7258 96.079 33.8253 96.2407 33.9621 96.278C33.9994 96.2904 34.0492 96.2904 34.0989 96.278L45.8651 93.1307C46.0766 93.081 46.2383 92.7949 46.2383 92.5212V90.1452C46.2383 89.9213 46.1388 89.7595 46.002 89.7222Z" fill="white"/>
<path d="M45.0334 90.7911C44.9588 90.7662 44.8717 90.7662 44.7847 90.7911C44.3991 90.8906 44.0881 91.4007 44.0881 91.9231C44.0881 92.3212 44.2747 92.6198 44.5235 92.682C44.5981 92.7068 44.6852 92.7068 44.7722 92.682C45.1578 92.5825 45.4688 92.0724 45.4688 91.5499C45.4688 91.1519 45.2946 90.8658 45.0334 90.7911Z" fill="url(#paint36_linear_219_81855)"/>
<path d="M42.9293 91.7363C42.9168 91.7363 42.9044 91.7363 42.892 91.7363L35.7277 93.6521C35.6656 93.6645 35.6158 93.7516 35.6158 93.8262C35.6158 93.8884 35.6407 93.9382 35.6904 93.9506C35.7029 93.9506 35.7153 93.9506 35.7277 93.9506L42.892 92.0349C42.9542 92.0224 43.0039 91.9354 43.0039 91.8607C42.9915 91.7985 42.9666 91.7488 42.9293 91.7363Z" fill="url(#paint37_linear_219_81855)"/>
<path d="M42.9293 92.459C42.9168 92.459 42.9044 92.459 42.892 92.459L39.7576 93.2925C39.6954 93.3049 39.6457 93.392 39.6457 93.4666C39.6457 93.5288 39.6706 93.5786 39.7203 93.591C39.7327 93.591 39.7452 93.591 39.7576 93.591L42.892 92.7575C42.9542 92.7451 43.0039 92.658 43.0039 92.5834C42.9915 92.5087 42.9666 92.4714 42.9293 92.459Z" fill="url(#paint38_linear_219_81855)"/>
<path d="M46.002 84.7955C45.9646 84.783 45.9149 84.783 45.8651 84.7955L34.0989 87.9427C33.8875 87.9925 33.7258 88.2786 33.7258 88.5523V90.9283C33.7258 91.1398 33.8253 91.3015 33.9621 91.3388C33.9994 91.3512 34.0492 91.3512 34.0989 91.3388L45.8651 88.1915C46.0766 88.1418 46.2383 87.8557 46.2383 87.582V85.206C46.2383 84.9945 46.1388 84.8328 46.002 84.7955Z" fill="white"/>
<path d="M45.0334 85.8644C44.9588 85.8395 44.8717 85.8395 44.7847 85.8644C44.3991 85.9639 44.0881 86.4739 44.0881 86.9964C44.0881 87.3945 44.2747 87.693 44.5235 87.7552C44.5981 87.7801 44.6852 87.7801 44.7722 87.7552C45.1578 87.6557 45.4688 87.1457 45.4688 86.6232C45.4688 86.2251 45.2946 85.9266 45.0334 85.8644Z" fill="url(#paint39_linear_219_81855)"/>
<path d="M42.9293 86.8096C42.9168 86.8096 42.9044 86.8096 42.892 86.8096L35.7277 88.7253C35.6656 88.7377 35.6158 88.8248 35.6158 88.8995C35.6158 88.9617 35.6407 89.0114 35.6904 89.0239C35.7029 89.0239 35.7153 89.0239 35.7277 89.0239L42.892 87.1081C42.9542 87.0957 43.0039 87.0086 43.0039 86.934C42.9915 86.8718 42.9666 86.822 42.9293 86.8096Z" fill="url(#paint40_linear_219_81855)"/>
<path d="M42.9293 87.5322C42.9168 87.5322 42.9044 87.5322 42.892 87.5322L39.7576 88.3657C39.6954 88.3781 39.6457 88.4652 39.6457 88.5399C39.6457 88.6021 39.6706 88.6518 39.7203 88.6642C39.7327 88.6642 39.7452 88.6642 39.7576 88.6642L42.892 87.8308C42.9542 87.8183 43.0039 87.7313 43.0039 87.6566C42.9915 87.582 42.9666 87.5447 42.9293 87.5322Z" fill="url(#paint41_linear_219_81855)"/>
<path d="M46.002 79.8687C45.9646 79.8563 45.9149 79.8563 45.8651 79.8687L34.0989 83.016C33.8875 83.0657 33.7258 83.3518 33.7258 83.6255V86.0015C33.7258 86.213 33.8253 86.3747 33.9621 86.412C33.9994 86.4245 34.0492 86.4245 34.0989 86.412L45.8651 83.2648C46.0766 83.215 46.2383 82.9289 46.2383 82.6552V80.2792C46.2383 80.0677 46.1388 79.906 46.002 79.8687Z" fill="white"/>
<path d="M45.0334 80.9396C44.9588 80.9147 44.8717 80.9147 44.7847 80.9396C44.3991 81.0391 44.0881 81.5491 44.0881 82.0716C44.0881 82.4697 44.2747 82.7682 44.5235 82.8304C44.5981 82.8553 44.6852 82.8553 44.7722 82.8304C45.1578 82.7309 45.4688 82.2209 45.4688 81.6984C45.4688 81.3003 45.2946 81.0018 45.0334 80.9396Z" fill="url(#paint42_linear_219_81855)"/>
<path d="M42.9293 81.8848C42.9168 81.8848 42.9044 81.8848 42.892 81.8848L35.7277 83.8005C35.6656 83.8129 35.6158 83.9 35.6158 83.9747C35.6158 84.0369 35.6407 84.0866 35.6904 84.0991C35.7029 84.0991 35.7153 84.0991 35.7277 84.0991L42.892 82.1833C42.9542 82.1709 43.0039 82.0838 43.0039 82.0092C42.9915 81.9345 42.9666 81.8972 42.9293 81.8848Z" fill="url(#paint43_linear_219_81855)"/>
<path d="M42.9293 82.5928C42.9168 82.5928 42.9044 82.5928 42.892 82.5928L39.7576 83.4262C39.6954 83.4387 39.6457 83.5258 39.6457 83.6004C39.6457 83.6626 39.6706 83.7124 39.7203 83.7248C39.7327 83.7248 39.7452 83.7248 39.7576 83.7248L42.892 82.8913C42.9542 82.8789 43.0039 82.7918 43.0039 82.7172C42.9915 82.655 42.9666 82.6052 42.9293 82.5928Z" fill="url(#paint44_linear_219_81855)"/>
<path d="M53.9153 73.7496C53.8656 73.7371 53.8282 73.7371 53.7785 73.7496L32.8953 79.3475C32.6838 79.4097 32.4973 79.6958 32.4973 79.9943V81.0144C32.4973 81.2383 32.5968 81.4125 32.746 81.4498C32.7958 81.4622 32.8331 81.4622 32.8828 81.4498L53.766 75.8395C53.9775 75.7773 54.1641 75.4911 54.1641 75.1926V74.1725C54.1641 73.961 54.0646 73.7869 53.9153 73.7496Z" fill="white"/>
<path d="M33.9139 79.7202C33.802 79.6953 33.6652 79.7575 33.5781 79.9068C33.4537 80.1058 33.4537 80.3795 33.5781 80.5039C33.6154 80.5412 33.6403 80.5661 33.69 80.5661C33.802 80.591 33.9388 80.5288 34.0259 80.3795C34.1502 80.1804 34.1502 79.9068 34.0259 79.7824C33.9885 79.7575 33.9512 79.7326 33.9139 79.7202Z" stroke="#2E405C" stroke-miterlimit="10" stroke-linecap="round"/>
<path d="M33.369 80.8647L33.5801 80.5039" stroke="#2E405C" stroke-miterlimit="10" stroke-linecap="round"/>
<path d="M53.9539 78.0396C53.9165 78.0272 53.8668 78.0272 53.8295 78.0396L49.3892 79.2338C49.2026 79.2836 49.0409 79.5324 49.0409 79.7936C49.0409 79.9927 49.128 80.1419 49.2648 80.1792C49.3021 80.1917 49.3518 80.1917 49.3892 80.1792L53.8295 78.985C54.016 78.9353 54.1777 78.6865 54.1777 78.4252C54.1653 78.2262 54.0782 78.0769 53.9539 78.0396Z" fill="white"/>
<g opacity="0.5">
<path opacity="0.5" d="M53.9539 80.4039C53.9165 80.3914 53.8668 80.3914 53.8295 80.4039L52.0384 80.889C51.8519 80.9388 51.6902 81.1876 51.6902 81.4488C51.6902 81.6478 51.7772 81.7971 51.914 81.8344C51.9514 81.8469 52.0011 81.8469 52.0384 81.8344L53.8295 81.3493C54.016 81.2995 54.1777 81.0507 54.1777 80.7895C54.1653 80.578 54.0782 80.4412 53.9539 80.4039Z" fill="white"/>
</g>
<path d="M100.126 190.369H70.7363V192.468H100.126V190.369Z" fill="url(#paint45_linear_219_81855)"/>
<path d="M123.397 196.645H94.0078V198.743H123.397V196.645Z" fill="url(#paint46_linear_219_81855)"/>
<path d="M145.976 189.487H116.586V191.586H145.976V189.487Z" fill="url(#paint47_linear_219_81855)"/>
<path d="M122.03 182.205H92.6406V184.304H122.03V182.205Z" fill="url(#paint48_linear_219_81855)"/>
<path d="M93.209 132.525L94.0078 197.568" stroke="url(#paint49_linear_219_81855)" stroke-width="10" stroke-miterlimit="10" stroke-linecap="round" stroke-linejoin="round"/>
<path d="M79.692 128.895L70.7363 191.335" stroke="url(#paint50_linear_219_81855)" stroke-width="10" stroke-miterlimit="10" stroke-linecap="round" stroke-linejoin="round"/>
<path d="M105.59 129.398L116.585 190.37" stroke="url(#paint51_linear_219_81855)" stroke-width="10" stroke-miterlimit="10" stroke-linecap="round" stroke-linejoin="round"/>
<path d="M119.089 116.658C118.479 116.49 117.849 116.805 117.596 117.414L115.41 122.955C114.233 125.914 111.71 128.16 108.641 128.999L94.1773 132.861C93.5045 133.029 93.1051 133.722 93.2943 134.393C93.4205 134.834 93.7568 135.17 94.1773 135.275L67.3524 128.097C66.932 127.992 66.5956 127.656 66.4695 127.215C66.3013 126.544 66.6797 125.872 67.3524 125.683L81.816 121.821C84.8853 121.003 87.429 118.736 88.5853 115.777L90.7716 110.236C91.0029 109.648 91.6546 109.333 92.2642 109.48L119.089 116.658Z" fill="url(#paint52_linear_219_81855)"/>
<path d="M119.086 116.658C119.129 116.679 119.171 116.679 119.213 116.7C119.864 116.952 120.18 117.687 119.906 118.316L117.72 123.857C116.269 127.551 113.095 130.364 109.269 131.392L94.8054 135.254C94.7002 135.275 94.5951 135.296 94.49 135.296C94.3849 135.296 94.2798 135.275 94.1747 135.254C93.7542 135.149 93.4179 134.813 93.2917 134.372C93.1236 133.701 93.502 133.029 94.1747 132.84L108.638 128.978C111.708 128.16 114.251 125.893 115.408 122.934L117.594 117.393C117.825 116.805 118.477 116.49 119.086 116.658Z" fill="url(#paint53_linear_219_81855)"/>
<path d="M78.7441 156.557L87.6998 172.634L93.9855 169.8L87.6367 152.674L78.7441 156.557Z" fill="url(#paint54_linear_219_81855)"/>
<path d="M87.5964 170.2C86.6504 170.179 85.6413 170.787 86.4401 172.697C87.197 174.502 87.9117 174.943 86.9447 177.651C85.9146 180.526 84.8004 182.877 85.2418 184.094C85.6833 185.311 87.3441 185.689 89.131 183.905C90.9179 182.121 94.723 176.832 96.1946 174.439C97.7293 171.921 95.8793 170.242 94.8912 169.192C93.9032 168.143 93.2304 167.702 93.2304 167.702C93.2304 167.702 93.9242 169.192 92.1162 170.242C90.2873 171.312 89.5935 170.221 87.5964 170.2Z" fill="url(#paint55_linear_219_81855)"/>
<path d="M96.3849 171.123C96.4059 171.774 96.2378 172.487 95.7542 173.285C94.1775 175.887 90.0151 181.617 88.102 183.569C87.2821 184.388 86.5043 184.786 85.8105 184.87C86.5463 185.374 87.8077 185.227 89.1111 183.926C90.898 182.142 94.7031 176.853 96.1747 174.46C96.9946 173.117 96.8474 172.026 96.3849 171.123Z" fill="url(#paint56_linear_219_81855)"/>
<path d="M91.1695 102.827C88.2264 101.19 84.5684 101.799 82.298 104.276C79.3548 107.508 75.2344 112.209 71.6605 116.994C67.7924 122.179 62.0112 130.406 68.4861 140.732C74.9401 151.059 81.4991 161.763 81.4991 161.763L89.9292 157.586C89.9292 157.586 84.9678 138.361 82.4662 133.114C79.9645 127.866 81.6042 127.636 82.0667 126.355C82.34 125.6 88.1633 119.219 92.9564 114.056C96.1519 110.614 95.2689 105.115 91.1695 102.827Z" fill="url(#paint57_linear_219_81855)"/>
<path d="M78.7013 92.8155C80.0468 89.9821 83.6416 80.0336 87.0053 73.4223C89.6751 68.1542 97.937 71.0506 94.8467 77.0743C91.0206 84.5461 87.8041 92.6476 85.3655 96.3835C82.7166 100.455 76.5991 97.2231 78.7013 92.8155Z" fill="url(#paint58_linear_219_81855)"/>
<path d="M75.3398 170.43L77.0847 188.753L84.0012 188.669L85.0313 170.43H75.3398Z" fill="url(#paint59_linear_219_81855)"/>
<path d="M85.682 115.903C85.682 115.903 82.6548 119.618 78.177 122.934C73.6992 126.25 70.798 131.35 70.9872 139.431C71.1765 147.511 75.1287 173.915 75.1287 173.915C81.0361 176.433 85.3036 173.789 85.3036 173.789C85.3036 173.789 86.0605 166.338 87.2798 155.739C88.3729 146.021 86.3548 138.759 87.2798 135.821C88.2048 132.882 106.852 126.439 108.807 117.792C110.594 109.879 106.894 105.01 106.894 105.01L87.1326 98.7764C87.1326 98.7764 81.6667 103.751 80.6787 107.466C79.6906 111.201 85.682 115.903 85.682 115.903Z" fill="url(#paint60_linear_219_81855)"/>
<path d="M77.9875 186.465C77.1256 186.067 75.9483 186.214 75.9273 188.291C75.9063 190.243 76.3898 190.936 74.3927 193.035C72.2904 195.26 70.3353 196.981 70.2302 198.261C70.1251 199.541 71.5126 200.57 73.8671 199.625C76.2216 198.681 81.8347 195.386 84.1261 193.769C86.5437 192.069 85.5136 189.803 85.0301 188.459C84.5466 187.116 84.1051 186.444 84.1051 186.444C84.1051 186.444 84.1472 188.103 82.0659 188.312C79.9847 188.564 79.7955 187.284 77.9875 186.465Z" fill="url(#paint61_linear_219_81855)"/>
<path d="M85.4922 189.845C85.5133 190.873 85.1559 191.965 83.8525 192.888C81.3928 194.609 75.3593 198.156 72.8577 199.164C72.0378 199.478 71.323 199.583 70.7344 199.52C71.323 200.045 72.4162 200.213 73.8667 199.646C76.2213 198.723 81.8343 195.407 84.1258 193.791C85.8496 192.594 85.8286 191.104 85.4922 189.845Z" fill="url(#paint62_linear_219_81855)"/>
<path d="M108.766 108.452C108.766 108.452 106.727 98.3983 107.884 88.3658C108.535 82.699 113.77 77.4309 110.028 73.0234C108.535 71.2603 96.9938 67.5664 90.1825 70.8196C86.8609 72.4147 86.8609 74.0308 85.5155 77.4309C84.0018 81.2718 83.7496 83.9163 84.6535 86.33C88.5427 96.7612 82.9297 102.659 82.9297 102.659C82.9297 102.659 88.4166 111.243 108.766 108.452Z" fill="url(#paint63_linear_219_81855)"/>
<path d="M101.85 62.5078C101.85 62.5078 100.651 69.4969 104.309 70.5464C104.309 70.5464 103.279 70.3365 100.883 71.8266C94.7441 75.6255 91.5277 81.985 91.5277 81.985C91.5277 81.985 90.2243 74.2823 93.7351 70.1056C96.1527 67.2302 95.2907 64.1029 95.2907 64.1029L101.85 62.5078Z" fill="url(#paint64_linear_219_81855)"/>
<path d="M104.037 62.257C104.227 60.7878 104.374 55.2049 100.695 52.9801C97.0159 50.7553 91.4028 52.9171 90.4779 55.6246C89.5529 58.3321 90.9824 60.8717 90.9614 61.9212C90.9403 62.9706 91.2136 64.7126 91.6972 65.9509C92.496 68.0707 93.6523 69.7078 95.229 69.8757C96.8897 70.0436 103.491 66.7275 104.037 62.257Z" fill="url(#paint65_linear_219_81855)"/>
<path d="M90.6455 55.5829C90.6455 55.5829 89.7835 57.0311 90.5193 59.5287C91.2551 62.0054 91.129 62.698 91.1921 63.6634C91.3602 66.9166 93.8409 69.3303 93.8409 69.3303C93.8409 69.3303 91.129 71.2192 89.0267 68.9105C85.8523 65.4475 89.8256 56.3805 89.8256 56.3805C89.8256 56.3805 89.279 52.5816 92.6847 50.5877C96.2795 48.4889 103.743 49.0555 105.614 53.8199C107.485 58.5843 107.274 62.9918 110.407 67.1685C108.41 69.2883 105.424 71.3872 102.46 70.6316C98.4449 69.6031 100.337 64.3141 100.484 63.0758C101.031 58.8991 97.3096 58.4583 93.4205 58.0386C91.0869 57.7657 90.6455 55.5829 90.6455 55.5829Z" fill="url(#paint66_linear_219_81855)"/>
<path d="M93.209 62.9082C93.209 62.9082 92.9567 65.028 92.9146 65.4058C92.8726 65.7836 93.3561 66.3503 94.0919 65.9515" stroke="#2E405C" stroke-miterlimit="10" stroke-linecap="round"/>
<path d="M95.9001 62.9703C96.202 62.9703 96.4467 62.726 96.4467 62.4246C96.4467 62.1232 96.202 61.8789 95.9001 61.8789C95.5982 61.8789 95.3535 62.1232 95.3535 62.4246C95.3535 62.726 95.5982 62.9703 95.9001 62.9703Z" fill="#2E405C"/>
<path d="M91.9489 63.2857C92.2508 63.2857 92.4955 63.0414 92.4955 62.74C92.4955 62.4387 92.2508 62.1943 91.9489 62.1943C91.6471 62.1943 91.4023 62.4387 91.4023 62.74C91.4023 63.0414 91.6471 63.2857 91.9489 63.2857Z" fill="#2E405C"/>
<path d="M95.1445 60.6415C95.1445 60.6415 95.9434 59.8859 96.9945 60.6415" stroke="#2E405C" stroke-miterlimit="10" stroke-linecap="round"/>
<path d="M90.877 60.9989C90.877 60.9989 91.6758 60.2433 92.7269 60.9989" stroke="#2E405C" stroke-miterlimit="10" stroke-linecap="round"/>
<path d="M95.1445 67.3786C95.1445 67.3786 96.8263 66.8119 96.8053 65.2168" stroke="#2E405C" stroke-miterlimit="10" stroke-linecap="round"/>
<path d="M85.6407 65.4039C85.5356 66.4113 85.4935 66.7052 85.4935 66.7052C85.4935 66.7052 84.7998 66.2224 83.9799 66.7681C83.9799 66.7681 83.0339 66.1805 82.4242 67.02C82.4242 67.02 82.0248 66.8101 81.4151 66.936C80.8055 67.062 80.6163 67.6706 80.5532 68.3003C80.4902 68.9299 80.5953 74.5758 80.4902 75.8141C80.1117 80.2007 79.3549 86.4342 78.3669 93.6332C77.3788 100.832 86.3765 100.727 86.0191 93.2764C85.6617 85.8256 85.4725 74.5338 85.4935 73.9881C85.5146 73.4424 86.2083 71.3016 86.5026 70.1473C86.7128 69.3287 87.0282 67.2928 87.1333 65.3409C87.1543 64.8792 87.0912 64.5434 86.5657 64.2705C85.8719 63.9137 85.4515 63.7878 84.6106 63.431C83.7907 63.0952 83.4543 64.1236 84.5475 64.7533C85.6407 65.3829 85.6407 65.4039 85.6407 65.4039Z" fill="url(#paint67_linear_219_81855)"/>
<path d="M80.7217 67.3141C80.5325 68.0277 80.1541 69.7278 80.07 70.2944C80.007 70.7352 80.7848 71.092 81.1001 70.2944C81.4155 69.4969 82.0041 68.0697 82.2564 67.1672C82.3615 66.7894 80.995 66.3067 80.7217 67.3141Z" fill="url(#paint68_linear_219_81855)"/>
<path d="M82.1705 67.0409C81.9603 67.8594 81.5188 69.8113 81.4137 70.483C81.3296 70.9867 82.2336 71.4065 82.591 70.483C82.9483 69.5595 83.6211 67.9224 83.9154 66.894C84.0625 66.4532 82.4858 65.8865 82.1705 67.0409Z" fill="url(#paint69_linear_219_81855)"/>
<path d="M83.8111 67.083C83.6009 67.9015 83.1594 69.8534 83.0543 70.5251C82.9702 71.0288 83.8742 71.4486 84.2316 70.5251C84.589 69.6016 85.2617 67.9645 85.556 66.9361C85.7032 66.4953 84.1265 65.9496 83.8111 67.083Z" fill="url(#paint70_linear_219_81855)"/>
<path d="M85.8713 72.3508C85.8713 72.3508 85.9554 70.273 85.8713 69.8112C85.7873 69.3495 85.4509 68.9087 84.3998 69.0137C83.3276 69.1396 81.9611 69.1396 81.856 69.4544C81.7509 69.7903 82.1083 70.273 82.781 70.336C83.4537 70.4199 83.9583 70.4619 83.9583 70.4619C83.9583 70.4619 82.4026 71.0496 82.4236 72.3718C82.4447 74.3237 85.7242 74.1558 85.8713 72.3508Z" fill="url(#paint71_linear_219_81855)"/>
<path d="M81.0338 98.0015C81.3491 97.8546 81.5173 97.4348 81.4332 96.9311L79.5832 85.5974C79.4781 84.9258 78.9735 84.3381 78.448 84.2751L74.727 83.8973C74.6008 83.8763 74.4957 83.8973 74.3906 83.9393L74.7901 83.7504C74.8952 83.7084 75.0003 83.6874 75.1264 83.7084L78.8474 84.0862C79.373 84.1282 79.8775 84.7369 79.9826 85.4085L81.8326 96.7422C81.9167 97.2669 81.7485 97.6867 81.4332 97.8126L81.0338 98.0015Z" fill="url(#paint72_linear_219_81855)"/>
<path d="M81.0329 98.0011C80.9277 98.0431 80.8226 98.064 80.6965 98.0431L76.9755 97.6653C76.4499 97.6233 75.9454 97.0146 75.8403 96.343L73.9903 85.0093C73.9062 84.4846 74.0744 84.0648 74.3897 83.9389C74.4948 83.8969 74.5999 83.8759 74.7261 83.8969L78.4471 84.2747C78.9726 84.3167 79.4772 84.9253 79.5823 85.597L81.4323 96.9307C81.5164 97.4554 81.3482 97.8542 81.0329 98.0011Z" fill="url(#paint73_linear_219_81855)"/>
<path d="M74.7463 84.5678C74.7884 84.5468 74.8514 84.5258 74.9145 84.5468C75.1878 84.5678 75.4611 84.8826 75.5242 85.2604C75.5662 85.5332 75.4821 85.7641 75.3139 85.8481C75.2719 85.869 75.2088 85.89 75.1458 85.869C74.8725 85.8481 74.5992 85.5332 74.5361 85.1554C74.4941 84.8826 74.5782 84.6517 74.7463 84.5678Z" fill="white"/>
<path d="M80.8655 90.6119C79.1837 91.0317 75.6519 92.1021 74.6218 92.4169C73.7178 92.6898 73.8019 93.5713 74.7059 93.5713C75.6098 93.5503 78.7002 92.8157 78.7002 92.8157C78.7002 92.8157 76.4507 93.9281 75.3786 94.4738C74.0121 95.1664 75.0843 96.1738 75.8411 95.817C76.682 95.4183 79.4149 94.117 79.4149 94.117C79.4149 94.117 77.8803 95.2084 77.0814 95.7751C76.3036 96.3208 76.9343 97.1393 77.5439 96.8035C78.1956 96.4467 80.424 95.2503 80.424 95.2503C80.424 95.2503 79.3729 95.922 78.6161 96.5726C77.8803 97.2233 78.3007 97.4961 78.6791 97.4961C79.0575 97.4961 80.5712 96.6146 81.2229 96.3627C82.2109 95.9849 84.166 95.796 85.2382 95.9849C86.3103 96.1738 99.2813 100.518 106.45 102.449C111.79 103.877 113.955 95.6491 107.417 94.5997C101.11 93.5923 85.6586 91.4305 83.1359 89.5625C81.8325 88.597 80.9496 87.3167 80.7604 87.1279C80.3189 86.6661 79.8774 87.4217 80.1297 88.3452C80.445 89.2057 80.8655 90.6119 80.8655 90.6119Z" fill="url(#paint74_linear_219_81855)"/>
<path d="M103.866 98.5459C103.887 95.4186 102.457 84.8615 103.151 77.4736C103.845 70.0857 112.464 70.2745 112.086 78.6699C111.707 87.0652 111.96 95.1877 111.35 99.5953C110.677 104.381 103.824 103.415 103.866 98.5459Z" fill="url(#paint75_linear_219_81855)"/>
<defs>
<linearGradient id="paint0_linear_219_81855" x1="152.091" y1="156.494" x2="131.355" y2="156.494" gradientUnits="userSpaceOnUse">
<stop stop-color="white"/>
<stop offset="1" stop-color="#AEBDDF"/>
</linearGradient>
<linearGradient id="paint1_linear_219_81855" x1="104.812" y1="-26.5403" x2="104.812" y2="168.672" gradientUnits="userSpaceOnUse">
<stop stop-color="#ACBDDE"/>
<stop offset="1" stop-color="#2E405C"/>
</linearGradient>
<linearGradient id="paint2_linear_219_81855" x1="173.999" y1="83.0233" x2="-48.6052" y2="83.0233" gradientUnits="userSpaceOnUse">
<stop stop-color="white"/>
<stop offset="1" stop-color="#AEBDDF"/>
</linearGradient>
<linearGradient id="paint3_linear_219_81855" x1="67.3535" y1="3.64063" x2="176.249" y2="50.548" gradientUnits="userSpaceOnUse">
<stop stop-color="#47EAFF"/>
<stop offset="1" stop-color="#00BBD3"/>
</linearGradient>
<linearGradient id="paint4_linear_219_81855" x1="151.231" y1="46.1543" x2="134.695" y2="62.4974" gradientUnits="userSpaceOnUse">
<stop stop-color="#ACBDDE"/>
<stop offset="1" stop-color="#2E405C"/>
</linearGradient>
<linearGradient id="paint5_linear_219_81855" x1="156.546" y1="55.8727" x2="124.745" y2="64.1106" gradientUnits="userSpaceOnUse">
<stop stop-color="#ACBDDE"/>
<stop offset="1" stop-color="#2E405C"/>
</linearGradient>
<linearGradient id="paint6_linear_219_81855" x1="69.916" y1="19.8389" x2="132.253" y2="78.8908" gradientUnits="userSpaceOnUse">
<stop stop-color="#47EAFF"/>
<stop offset="0.682292" stop-color="#00BBD3"/>
</linearGradient>
<linearGradient id="paint7_linear_219_81855" x1="90.0222" y1="29.8449" x2="90.0222" y2="197.757" gradientUnits="userSpaceOnUse">
<stop stop-color="white"/>
<stop offset="1" stop-color="#AEBDDF"/>
</linearGradient>
<linearGradient id="paint8_linear_219_81855" x1="90.0199" y1="10.2786" x2="90.0199" y2="115.529" gradientUnits="userSpaceOnUse">
<stop stop-color="white"/>
<stop offset="1" stop-color="#AEBDDF"/>
</linearGradient>
<linearGradient id="paint9_linear_219_81855" x1="90.1259" y1="10.0891" x2="90.1259" y2="59.9745" gradientUnits="userSpaceOnUse">
<stop stop-color="white"/>
<stop offset="1" stop-color="#AEBDDF"/>
</linearGradient>
<linearGradient id="paint10_linear_219_81855" x1="115.731" y1="36.7643" x2="115.731" y2="42.1518" gradientUnits="userSpaceOnUse">
<stop stop-color="#ACBDDE"/>
<stop offset="1" stop-color="#2E405C"/>
</linearGradient>
<linearGradient id="paint11_linear_219_81855" x1="93.2287" y1="17.9664" x2="93.2287" y2="52.4918" gradientUnits="userSpaceOnUse">
<stop stop-color="white"/>
<stop offset="1" stop-color="#AEBDDF"/>
</linearGradient>
<linearGradient id="paint12_linear_219_81855" x1="93.2287" y1="27.6665" x2="93.2287" y2="62.1919" gradientUnits="userSpaceOnUse">
<stop stop-color="white"/>
<stop offset="1" stop-color="#AEBDDF"/>
</linearGradient>
<linearGradient id="paint13_linear_219_81855" x1="93.2287" y1="37.3682" x2="93.2287" y2="71.8936" gradientUnits="userSpaceOnUse">
<stop stop-color="white"/>
<stop offset="1" stop-color="#AEBDDF"/>
</linearGradient>
<linearGradient id="paint14_linear_219_81855" x1="93.2287" y1="47.0693" x2="93.2287" y2="81.5947" gradientUnits="userSpaceOnUse">
<stop stop-color="white"/>
<stop offset="1" stop-color="#AEBDDF"/>
</linearGradient>
<linearGradient id="paint15_linear_219_81855" x1="56.3539" y1="173.321" x2="24.1372" y2="173.321" gradientUnits="userSpaceOnUse">
<stop stop-color="white"/>
<stop offset="1" stop-color="#AEBDDF"/>
</linearGradient>
<linearGradient id="paint16_linear_219_81855" x1="33.3299" y1="141.839" x2="38.7069" y2="141.839" gradientUnits="userSpaceOnUse">
<stop stop-color="white"/>
<stop offset="1" stop-color="#AEBDDF"/>
</linearGradient>
<linearGradient id="paint17_linear_219_81855" x1="36.1067" y1="120.768" x2="36.1067" y2="111.669" gradientUnits="userSpaceOnUse">
<stop stop-color="white"/>
<stop offset="1" stop-color="#AEBDDF"/>
</linearGradient>
<linearGradient id="paint18_linear_219_81855" x1="36.1067" y1="113.405" x2="36.1067" y2="53.7805" gradientUnits="userSpaceOnUse">
<stop stop-color="white"/>
<stop offset="1" stop-color="#AEBDDF"/>
</linearGradient>
<linearGradient id="paint19_linear_219_81855" x1="15.6903" y1="95.3639" x2="17.842" y2="109.642" gradientUnits="userSpaceOnUse">
<stop stop-color="white"/>
<stop offset="1" stop-color="#AEBDDF"/>
</linearGradient>
<linearGradient id="paint20_linear_219_81855" x1="5.62523" y1="98.7899" x2="22.0076" y2="98.7899" gradientUnits="userSpaceOnUse">
<stop stop-color="#ACBDDE" stop-opacity="0.1"/>
<stop offset="1" stop-color="#2E405C"/>
</linearGradient>
<linearGradient id="paint21_linear_219_81855" x1="8.57854" y1="102.234" x2="22.0517" y2="102.234" gradientUnits="userSpaceOnUse">
<stop stop-color="#FFEFA4"/>
<stop offset="1" stop-color="#FE8F01"/>
</linearGradient>
<linearGradient id="paint22_linear_219_81855" x1="14.3902" y1="93.8486" x2="14.3902" y2="100.81" gradientUnits="userSpaceOnUse">
<stop stop-color="#FFEFA4"/>
<stop offset="1" stop-color="#FE8F01"/>
</linearGradient>
<linearGradient id="paint23_linear_219_81855" x1="11.6016" y1="105.791" x2="11.6016" y2="89.8157" gradientUnits="userSpaceOnUse">
<stop offset="0.00558659" stop-color="white" stop-opacity="0"/>
<stop offset="1" stop-color="white"/>
</linearGradient>
<linearGradient id="paint24_linear_219_81855" x1="7.45186" y1="92.3413" x2="21.6324" y2="92.6116" gradientUnits="userSpaceOnUse">
<stop stop-color="#ACBDDE" stop-opacity="0.1"/>
<stop offset="1" stop-color="#2E405C"/>
</linearGradient>
<linearGradient id="paint25_linear_219_81855" x1="14.3925" y1="92.8713" x2="14.3925" y2="86.4658" gradientUnits="userSpaceOnUse">
<stop stop-color="white"/>
<stop offset="1" stop-color="#AEBDDF"/>
</linearGradient>
<linearGradient id="paint26_linear_219_81855" x1="16.1985" y1="89.1491" x2="21.045" y2="89.1491" gradientUnits="userSpaceOnUse">
<stop stop-color="#5D6E8C"/>
<stop offset="1" stop-color="#2E405C"/>
</linearGradient>
<linearGradient id="paint27_linear_219_81855" x1="40.1416" y1="63.4396" x2="40.1416" y2="104.224" gradientUnits="userSpaceOnUse">
<stop stop-color="#ACBDDE"/>
<stop offset="1" stop-color="#2E405C"/>
</linearGradient>
<linearGradient id="paint28_linear_219_81855" x1="40.1416" y1="63.4396" x2="40.1416" y2="104.224" gradientUnits="userSpaceOnUse">
<stop stop-color="#ACBDDE"/>
<stop offset="1" stop-color="#2E405C"/>
</linearGradient>
<linearGradient id="paint29_linear_219_81855" x1="48.2559" y1="111.661" x2="48.2559" y2="98.3299" gradientUnits="userSpaceOnUse">
<stop stop-color="#ACBDDE"/>
<stop offset="1" stop-color="#2E405C"/>
</linearGradient>
<linearGradient id="paint30_linear_219_81855" x1="49.0469" y1="117.482" x2="47.909" y2="96.8633" gradientUnits="userSpaceOnUse">
<stop stop-color="white"/>
<stop offset="1" stop-color="#AEBDDF"/>
</linearGradient>
<linearGradient id="paint31_linear_219_81855" x1="19.6361" y1="102.58" x2="69.403" y2="102.58" gradientUnits="userSpaceOnUse">
<stop stop-color="#ACBDDE"/>
<stop offset="1" stop-color="#2E405C"/>
</linearGradient>
<linearGradient id="paint32_linear_219_81855" x1="19.637" y1="104.593" x2="69.4039" y2="104.593" gradientUnits="userSpaceOnUse">
<stop stop-color="#ACBDDE"/>
<stop offset="1" stop-color="#2E405C"/>
</linearGradient>
<linearGradient id="paint33_linear_219_81855" x1="65.9397" y1="78.0699" x2="54.0578" y2="103.657" gradientUnits="userSpaceOnUse">
<stop stop-color="#47EAFF"/>
<stop offset="1" stop-color="#00BBD3"/>
</linearGradient>
<linearGradient id="paint34_linear_219_81855" x1="58.612" y1="77.1532" x2="45.8381" y2="87.518" gradientUnits="userSpaceOnUse">
<stop stop-color="#47EAFF"/>
<stop offset="1" stop-color="#00BBD3"/>
</linearGradient>
<linearGradient id="paint35_linear_219_81855" x1="65.9453" y1="74.6655" x2="63.7268" y2="86.6556" gradientUnits="userSpaceOnUse">
<stop stop-color="#47EAFF"/>
<stop offset="1" stop-color="#00BBD3"/>
</linearGradient>
<linearGradient id="paint36_linear_219_81855" x1="44.7823" y1="88.817" x2="44.7823" y2="94.3865" gradientUnits="userSpaceOnUse">
<stop stop-color="#FFEFA4"/>
<stop offset="1" stop-color="#FE8F01"/>
</linearGradient>
<linearGradient id="paint37_linear_219_81855" x1="32.5599" y1="95.0328" x2="43.8597" y2="91.3762" gradientUnits="userSpaceOnUse">
<stop stop-color="white"/>
<stop offset="1" stop-color="#AEBDDF"/>
</linearGradient>
<linearGradient id="paint38_linear_219_81855" x1="32.8026" y1="95.784" x2="44.1024" y2="92.1273" gradientUnits="userSpaceOnUse">
<stop stop-color="white"/>
<stop offset="1" stop-color="#AEBDDF"/>
</linearGradient>
<linearGradient id="paint39_linear_219_81855" x1="44.7823" y1="84.1506" x2="44.7823" y2="89.5211" gradientUnits="userSpaceOnUse">
<stop stop-color="#FFEFA4"/>
<stop offset="1" stop-color="#FE8F01"/>
</linearGradient>
<linearGradient id="paint40_linear_219_81855" x1="30.597" y1="86.0384" x2="42.3186" y2="88.5699" gradientUnits="userSpaceOnUse">
<stop stop-color="white"/>
<stop offset="1" stop-color="#AEBDDF"/>
</linearGradient>
<linearGradient id="paint41_linear_219_81855" x1="30.6511" y1="85.7893" x2="42.3726" y2="88.3207" gradientUnits="userSpaceOnUse">
<stop stop-color="white"/>
<stop offset="1" stop-color="#AEBDDF"/>
</linearGradient>
<linearGradient id="paint42_linear_219_81855" x1="44.7823" y1="80.2833" x2="44.7823" y2="84.9237" gradientUnits="userSpaceOnUse">
<stop stop-color="#FFEFA4"/>
<stop offset="1" stop-color="#FE8F01"/>
</linearGradient>
<linearGradient id="paint43_linear_219_81855" x1="33.4536" y1="84.473" x2="44.5657" y2="81.6602" gradientUnits="userSpaceOnUse">
<stop stop-color="white"/>
<stop offset="1" stop-color="#AEBDDF"/>
</linearGradient>
<linearGradient id="paint44_linear_219_81855" x1="33.6168" y1="85.1167" x2="44.7289" y2="82.3039" gradientUnits="userSpaceOnUse">
<stop stop-color="white"/>
<stop offset="1" stop-color="#AEBDDF"/>
</linearGradient>
<linearGradient id="paint45_linear_219_81855" x1="94.073" y1="191.42" x2="64.1568" y2="191.42" gradientUnits="userSpaceOnUse">
<stop stop-color="white"/>
<stop offset="1" stop-color="#AEBDDF"/>
</linearGradient>
<linearGradient id="paint46_linear_219_81855" x1="112.842" y1="197.689" x2="87.6137" y2="197.689" gradientUnits="userSpaceOnUse">
<stop stop-color="white"/>
<stop offset="1" stop-color="#AEBDDF"/>
</linearGradient>
<linearGradient id="paint47_linear_219_81855" x1="142.169" y1="190.535" x2="98.7365" y2="190.535" gradientUnits="userSpaceOnUse">
<stop stop-color="white"/>
<stop offset="1" stop-color="#AEBDDF"/>
</linearGradient>
<linearGradient id="paint48_linear_219_81855" x1="112.841" y1="183.248" x2="87.6129" y2="183.248" gradientUnits="userSpaceOnUse">
<stop stop-color="white"/>
<stop offset="1" stop-color="#AEBDDF"/>
</linearGradient>
<linearGradient id="paint49_linear_219_81855" x1="92.1594" y1="165.044" x2="95.0501" y2="165.044" gradientUnits="userSpaceOnUse">
<stop stop-color="#5D6E8C"/>
<stop offset="1" stop-color="#2E405C"/>
</linearGradient>
<linearGradient id="paint50_linear_219_81855" x1="69.6765" y1="160.123" x2="80.7378" y2="160.123" gradientUnits="userSpaceOnUse">
<stop stop-color="#5D6E8C"/>
<stop offset="1" stop-color="#2E405C"/>
</linearGradient>
<linearGradient id="paint51_linear_219_81855" x1="104.538" y1="159.892" x2="117.642" y2="159.892" gradientUnits="userSpaceOnUse">
<stop stop-color="#5D6E8C"/>
<stop offset="1" stop-color="#2E405C"/>
</linearGradient>
<linearGradient id="paint52_linear_219_81855" x1="159.317" y1="122.344" x2="91.501" y2="122.344" gradientUnits="userSpaceOnUse">
<stop stop-color="white"/>
<stop offset="1" stop-color="#AEBDDF"/>
</linearGradient>
<linearGradient id="paint53_linear_219_81855" x1="122.103" y1="123.897" x2="79.4835" y2="129.576" gradientUnits="userSpaceOnUse">
<stop stop-color="white"/>
<stop offset="1" stop-color="#AEBDDF"/>
</linearGradient>
<linearGradient id="paint54_linear_219_81855" x1="93.1461" y1="178.243" x2="82.2277" y2="152.27" gradientUnits="userSpaceOnUse">
<stop stop-color="#FFD2BB"/>
<stop offset="1" stop-color="#FF6B5A"/>
</linearGradient>
<linearGradient id="paint55_linear_219_81855" x1="90.9502" y1="163.139" x2="90.9502" y2="194.093" gradientUnits="userSpaceOnUse">
<stop stop-color="white"/>
<stop offset="1" stop-color="#AEBDDF"/>
</linearGradient>
<linearGradient id="paint56_linear_219_81855" x1="91.2865" y1="160.511" x2="91.2865" y2="185.169" gradientUnits="userSpaceOnUse">
<stop stop-color="#ACBDDE"/>
<stop offset="1" stop-color="#2E405C"/>
</linearGradient>
<linearGradient id="paint57_linear_219_81855" x1="80.2353" y1="197.895" x2="80.2353" y2="130.685" gradientUnits="userSpaceOnUse">
<stop stop-color="#ACBDDE"/>
<stop offset="1" stop-color="#2E405C"/>
</linearGradient>
<linearGradient id="paint58_linear_219_81855" x1="86.8923" y1="60.5059" x2="86.8923" y2="105.434" gradientUnits="userSpaceOnUse">
<stop stop-color="#FFD2BB"/>
<stop offset="1" stop-color="#FF6B5A"/>
</linearGradient>
<linearGradient id="paint59_linear_219_81855" x1="80.1876" y1="192.142" x2="80.1876" y2="156.21" gradientUnits="userSpaceOnUse">
<stop stop-color="#FFD2BB"/>
<stop offset="1" stop-color="#FF6B5A"/>
</linearGradient>
<linearGradient id="paint60_linear_219_81855" x1="90.1337" y1="193.213" x2="90.1337" y2="112.657" gradientUnits="userSpaceOnUse">
<stop stop-color="#ACBDDE"/>
<stop offset="1" stop-color="#2E405C"/>
</linearGradient>
<linearGradient id="paint61_linear_219_81855" x1="77.9448" y1="182.357" x2="77.9448" y2="206.183" gradientUnits="userSpaceOnUse">
<stop stop-color="white"/>
<stop offset="1" stop-color="#AEBDDF"/>
</linearGradient>
<linearGradient id="paint62_linear_219_81855" x1="78.1972" y1="183.179" x2="78.1972" y2="201.587" gradientUnits="userSpaceOnUse">
<stop stop-color="#ACBDDE"/>
<stop offset="1" stop-color="#2E405C"/>
</linearGradient>
<linearGradient id="paint63_linear_219_81855" x1="97.1386" y1="61.083" x2="97.1386" y2="136.402" gradientUnits="userSpaceOnUse">
<stop stop-color="#B1FFC8"/>
<stop offset="1" stop-color="#2BDE5E"/>
</linearGradient>
<linearGradient id="paint64_linear_219_81855" x1="97.8046" y1="89.8802" x2="97.8046" y2="64.2094" gradientUnits="userSpaceOnUse">
<stop stop-color="#FFD2BB"/>
<stop offset="1" stop-color="#FF6B5A"/>
</linearGradient>
<linearGradient id="paint65_linear_219_81855" x1="97.1397" y1="83.4752" x2="97.1397" y2="40.3269" gradientUnits="userSpaceOnUse">
<stop stop-color="#FFD2BB"/>
<stop offset="1" stop-color="#FF6B5A"/>
</linearGradient>
<linearGradient id="paint66_linear_219_81855" x1="124.722" y1="20.1068" x2="96.7274" y2="66.2115" gradientUnits="userSpaceOnUse">
<stop stop-color="#ACBDDE"/>
<stop offset="1" stop-color="#2E405C"/>
</linearGradient>
<linearGradient id="paint67_linear_219_81855" x1="85.0068" y1="55.4372" x2="81.7444" y2="99.9815" gradientUnits="userSpaceOnUse">
<stop stop-color="#FFD2BB"/>
<stop offset="1" stop-color="#FF6B5A"/>
</linearGradient>
<linearGradient id="paint68_linear_219_81855" x1="81.1656" y1="62.4508" x2="81.1656" y2="71.6574" gradientUnits="userSpaceOnUse">
<stop stop-color="#FFD2BB"/>
<stop offset="1" stop-color="#FF6B5A"/>
</linearGradient>
<linearGradient id="paint69_linear_219_81855" x1="82.6785" y1="62.4505" x2="82.6785" y2="71.6571" gradientUnits="userSpaceOnUse">
<stop stop-color="#FFD2BB"/>
<stop offset="1" stop-color="#FF6B5A"/>
</linearGradient>
<linearGradient id="paint70_linear_219_81855" x1="84.3133" y1="62.4506" x2="84.3133" y2="71.6572" gradientUnits="userSpaceOnUse">
<stop stop-color="#FFD2BB"/>
<stop offset="1" stop-color="#FF6B5A"/>
</linearGradient>
<linearGradient id="paint71_linear_219_81855" x1="83.5232" y1="78.4328" x2="84.0611" y2="66.1011" gradientUnits="userSpaceOnUse">
<stop stop-color="#FFD2BB"/>
<stop offset="1" stop-color="#FF6B5A"/>
</linearGradient>
<linearGradient id="paint72_linear_219_81855" x1="84.5069" y1="80.5468" x2="79.9633" y2="87.7818" gradientUnits="userSpaceOnUse">
<stop stop-color="#ACBDDE"/>
<stop offset="1" stop-color="#2E405C"/>
</linearGradient>
<linearGradient id="paint73_linear_219_81855" x1="85.9397" y1="82.2349" x2="73.7896" y2="95.21" gradientUnits="userSpaceOnUse">
<stop stop-color="#ACBDDE"/>
<stop offset="1" stop-color="#2E405C"/>
</linearGradient>
<linearGradient id="paint74_linear_219_81855" x1="52.4633" y1="94.753" x2="141.537" y2="94.753" gradientUnits="userSpaceOnUse">
<stop stop-color="#FFD2BB"/>
<stop offset="1" stop-color="#FF6B5A"/>
</linearGradient>
<linearGradient id="paint75_linear_219_81855" x1="52.4649" y1="87.4303" x2="141.539" y2="87.4303" gradientUnits="userSpaceOnUse">
<stop stop-color="#FFD2BB"/>
<stop offset="1" stop-color="#FF6B5A"/>
</linearGradient>
</defs>
</svg>
